<?xml version="1.0" encoding="UTF-8"?>
<svg version="1.1" xmlns="http://www.w3.org/2000/svg" width="231" height="262">
<path d="M0 0 C0.82008545 0.32436035 1.6401709 0.6487207 2.48510742 0.98291016 C7.60934629 3.043058 12.52814032 5.34440223 17.4375 7.875 C17.4375 9.195 17.4375 10.515 17.4375 11.875 C16.58027344 12.20113281 15.72304687 12.52726562 14.83984375 12.86328125 C8.99056289 15.09880122 3.16564527 17.34395906 -2.5625 19.875 C-0.73893317 29.37000702 -0.73893317 29.37000702 3.4375 37.875 C5.74407014 38.62907101 8.083252 39.286438 10.4375 39.875 C14.23036039 41.88386677 16.98941251 43.53073752 18.375 47.6875 C18.4059375 48.7703125 18.4059375 48.7703125 18.4375 49.875 C15.35096865 50.79454398 12.70969204 50.92624872 9.5 50.8125 C5.67013664 50.79000447 2.7797518 50.81066801 -0.5625 52.875 C-5.19766555 57.89642934 -5.778499 61.71493684 -5.73046875 68.3046875 C-5.5057463 71.74346367 -4.61075605 74.59919985 -3.5625 77.875 C-3.5625 79.195 -3.5625 80.515 -3.5625 81.875 C-2.9025 81.875 -2.2425 81.875 -1.5625 81.875 C-1.5625 83.195 -1.5625 84.515 -1.5625 85.875 C-0.9025 85.875 -0.2425 85.875 0.4375 85.875 C0.7675 87.195 1.0975 88.515 1.4375 89.875 C2.05422577 89.86025131 2.67095154 89.84550262 3.30636597 89.83030701 C9.76333568 89.67710349 16.2204589 89.53253136 22.67773438 89.39282227 C25.08305709 89.33966864 27.48833329 89.28436273 29.89355469 89.22680664 C33.3638303 89.1441468 36.83420311 89.06939667 40.3046875 88.99609375 C41.36863739 88.96905869 42.43258728 88.94202362 43.52877808 88.91416931 C63.02617442 88.53014106 63.02617442 88.53014106 71.4375 95.875 C76.98304378 102.4158978 77.74180444 110.01631233 77.69628906 118.25952148 C77.70154602 119.45390839 77.70154602 119.45390839 77.70690918 120.67242432 C77.71564503 123.28040527 77.70990579 125.88811048 77.703125 128.49609375 C77.70447413 130.32398022 77.70641672 132.15186634 77.70892334 133.97975159 C77.71186369 137.80172152 77.70761258 141.62359765 77.69824219 145.44555664 C77.68685645 150.32536266 77.69340851 155.20494843 77.70538712 160.08474636 C77.71264209 163.85701635 77.71030099 167.62923482 77.70513153 171.40150642 C77.70380466 173.19990122 77.70540872 174.9983008 77.71009064 176.79668999 C77.71521507 179.31827918 77.70736307 181.83952045 77.69628906 184.36108398 C77.70033752 185.09226944 77.70438599 185.8234549 77.70855713 186.57679749 C77.63473975 195.72843909 75.98510898 203.22576516 69.4375 209.875 C64.28631451 214.14777281 58.98521275 215.85949825 52.4375 216.875 C52.46070313 217.99519531 52.48390625 219.11539063 52.5078125 220.26953125 C52.52657237 221.74218084 52.54477234 223.21483763 52.5625 224.6875 C52.58763672 225.79448242 52.58763672 225.79448242 52.61328125 226.92382812 C52.64824628 230.78746426 52.63147555 232.58403668 50.4375 235.875 C47.13382494 236.49266549 45.76869971 236.09168429 42.94677734 234.24546814 C42.0645752 233.5005159 41.18237305 232.75556366 40.2734375 231.98803711 C22.26717561 217.77164653 8.28549958 215.38962444 -14.29748535 216.3503418 C-18.86363766 216.52604822 -23.43263818 216.58264311 -28.00149536 216.64711666 C-31.5504489 216.69779634 -35.09440182 216.76721836 -38.64111328 216.90565491 C-48.32457214 217.19692907 -58.14186973 216.69011179 -66.0703125 210.46875 C-68.4355304 207.94254869 -69.92019884 205.05946647 -71.421875 201.9609375 C-72.59910487 199.80805821 -73.64309417 198.39994147 -75.5625 196.875 C-78.68799017 196.62451364 -78.68799017 196.62451364 -81.5625 196.875 C-81.5625 197.535 -81.5625 198.195 -81.5625 198.875 C-82.2225 198.875 -82.8825 198.875 -83.5625 198.875 C-83.5625 199.535 -83.5625 200.195 -83.5625 200.875 C-84.2225 200.875 -84.8825 200.875 -85.5625 200.875 C-85.79453125 201.40609375 -86.0265625 201.9371875 -86.265625 202.484375 C-87.96460309 205.61622617 -90.11623597 208.33420977 -92.3125 211.125 C-93.22330275 212.28985937 -94.13346183 213.45522232 -95.04296875 214.62109375 C-95.48044434 215.1816748 -95.91791992 215.74225586 -96.36865234 216.31982422 C-97.84146599 218.23839742 -99.23046172 220.21157674 -100.625 222.1875 C-106.03037424 229.46158933 -113.45958535 236.24258136 -122.5625 237.875 C-126.21355054 238.10147626 -129.84381878 238.06497656 -133.5 238 C-134.47001953 237.99097656 -135.44003906 237.98195312 -136.43945312 237.97265625 C-138.81406407 237.94926107 -141.18814776 237.91648176 -143.5625 237.875 C-144.6875 233.125 -144.6875 233.125 -143.5625 230.875 C-142.9025 230.875 -142.2425 230.875 -141.5625 230.875 C-141.29953125 230.31167969 -141.0365625 229.74835938 -140.765625 229.16796875 C-139.45797166 226.67578528 -137.94922978 224.47670989 -136.3125 222.1875 C-135.68988281 221.29804688 -135.06726563 220.40859375 -134.42578125 219.4921875 C-133.30355863 217.91589996 -132.16093821 216.35346542 -130.98046875 214.8203125 C-120.54458092 200.66715591 -118.58367719 182.23439122 -116.49511719 165.30053711 C-114.45509184 148.83096575 -110.84610466 133.30597605 -104.5625 117.875 C-103.9025 117.875 -103.2425 117.875 -102.5625 117.875 C-102.45035156 117.14667969 -102.33820313 116.41835937 -102.22265625 115.66796875 C-99.64064857 104.7440901 -89.12191293 92.86133164 -80.5625 85.875 C-79.9025 85.875 -79.2425 85.875 -78.5625 85.875 C-78.31242187 85.31296875 -78.06234375 84.7509375 -77.8046875 84.171875 C-76.3703618 81.51972559 -74.63159334 79.4285672 -72.6875 77.125 C-65.71869475 68.45494934 -63.62157776 60.7917673 -61.5625 49.875 C-61.16831837 47.91633354 -60.77270925 45.95795322 -60.375 44 C-60.10313511 42.62520359 -59.83185414 41.25029053 -59.5625 39.875 C-60.2225 39.545 -60.8825 39.215 -61.5625 38.875 C-61.5625 34.255 -61.5625 29.635 -61.5625 24.875 C-65.5225 23.555 -69.4825 22.235 -73.5625 20.875 C-73.44823491 23.29260876 -73.32150339 25.70847218 -73.1875 28.125 C-73.1565625 28.80691406 -73.125625 29.48882812 -73.09375 30.19140625 C-72.87611983 33.92739079 -72.39869802 36.62690469 -70.5625 39.875 C-70.2420129 43.46445551 -70.17719873 45.99107355 -71.625 49.3125 C-74.51288552 51.64143994 -76.97826962 51.14550795 -80.5625 50.875 C-80.5625 50.215 -80.5625 49.555 -80.5625 48.875 C-81.2225 48.875 -81.8825 48.875 -82.5625 48.875 C-82.61666188 47.27120659 -82.65536638 45.66688594 -82.6875 44.0625 C-82.71070313 43.16917969 -82.73390625 42.27585938 -82.7578125 41.35546875 C-82.5625 38.875 -82.5625 38.875 -80.5625 35.875 C-80.36741258 32.98024702 -80.28370267 30.20423189 -80.3125 27.3125 C-80.30476563 26.53197266 -80.29703125 25.75144531 -80.2890625 24.94726562 C-80.12285887 20.43642038 -80.12285887 20.43642038 -82.5625 16.875 C-83.408125 16.545 -84.25375 16.215 -85.125 15.875 C-87.5625 14.875 -87.5625 14.875 -88.5625 12.875 C-87.28464351 10.31928703 -86.27151252 10.10564091 -83.6875 8.95703125 C-82.87514893 8.59311279 -82.06279785 8.22919434 -81.22583008 7.85424805 C-80.34693115 7.46922119 -79.46803223 7.08419434 -78.5625 6.6875 C-77.66490967 6.28893799 -76.76731934 5.89037598 -75.8425293 5.47973633 C-68.6832733 2.31966258 -61.46428524 -0.68300475 -54.21484375 -3.62890625 C-51.26718173 -4.83634428 -48.34530101 -6.0755611 -45.4375 -7.375 C-44.7671875 -7.67148438 -44.096875 -7.96796875 -43.40625 -8.2734375 C-42.1607489 -8.84869013 -40.9311191 -9.45941785 -39.71875 -10.1015625 C-29.67080893 -15.16960295 -10.05893415 -3.99882705 0 0 Z M-18.5625 34.875 C-19.2225 35.535 -19.8825 36.195 -20.5625 36.875 C-20.2439823 38.98320797 -20.2439823 38.98320797 -19.5625 40.875 C-17.9125 41.205 -16.2625 41.535 -14.5625 41.875 C-13.9025 40.555 -13.2425 39.235 -12.5625 37.875 C-13.2225 36.885 -13.8825 35.895 -14.5625 34.875 C-15.8825 34.875 -17.2025 34.875 -18.5625 34.875 Z M-42.5625 89.875 C-41.5625 91.875 -41.5625 91.875 -41.5625 91.875 Z M-41.5625 91.875 C-41.27375 92.47183594 -40.985 93.06867188 -40.6875 93.68359375 C-35.30696993 106.2568463 -36.66316422 118.84024174 -40.58984375 131.60546875 C-41.50896291 134.69503797 -42.10311602 137.68832586 -42.5625 140.875 C-33.14636776 130.06388521 -31.67040451 120.0221014 -32.30957031 106.14892578 C-32.83088767 101.4621016 -34.84277644 97.6534731 -37.5625 93.875 C-38.2225 93.875 -38.8825 93.875 -39.5625 93.875 C-39.5625 93.215 -39.5625 92.555 -39.5625 91.875 C-40.2225 91.875 -40.8825 91.875 -41.5625 91.875 Z M-16.5625 110.875 C-16.5625 111.535 -16.5625 112.195 -16.5625 112.875 C-18.2125 113.535 -19.8625 114.195 -21.5625 114.875 C-21.5625 115.535 -21.5625 116.195 -21.5625 116.875 C-22.44421875 117.2153125 -22.44421875 117.2153125 -23.34375 117.5625 C-30.26406671 121.65620848 -34.29547174 132.42793404 -36.5625 139.875 C-38.59252408 149.63524822 -38.54305094 160.32584636 -35.5625 169.875 C-35.39105469 170.51308594 -35.21960938 171.15117187 -35.04296875 171.80859375 C-32.06879195 181.34514774 -24.74125984 190.24970274 -16.5625 195.875 C-15.9025 195.875 -15.2425 195.875 -14.5625 195.875 C-14.5625 196.535 -14.5625 197.195 -14.5625 197.875 C-12.90012104 198.67563104 -11.23231875 199.46500368 -9.5625 200.25 C-8.1703125 200.91128906 -8.1703125 200.91128906 -6.75 201.5859375 C6.19029913 206.81914671 20.41797376 206.64435165 33.2890625 201.37890625 C40.14814886 198.10462662 40.14814886 198.10462662 46.4375 193.875 C46.4375 193.215 46.4375 192.555 46.4375 191.875 C47.0975 191.875 47.7575 191.875 48.4375 191.875 C48.4375 191.215 48.4375 190.555 48.4375 189.875 C49.0975 189.875 49.7575 189.875 50.4375 189.875 C52.00614541 187.97021628 53.41927215 186.0908925 54.8125 184.0625 C55.21662109 183.4744458 55.62074219 182.8863916 56.03710938 182.28051758 C63.72634126 170.72018738 66.09997508 157.57972631 63.6875 143.9375 C61.88784296 135.82016581 58.77373343 127.37286247 53.4375 120.875 C52.7775 120.875 52.1175 120.875 51.4375 120.875 C51.20289063 120.2975 50.96828125 119.72 50.7265625 119.125 C47.01659475 112.64941992 38.46831012 107.24532198 31.4375 104.875 C14.1956823 100.53637267 -1.29758741 101.06864243 -16.5625 110.875 Z M-44.5625 141.875 C-43.5625 143.875 -43.5625 143.875 -43.5625 143.875 Z " fill="#E72F86" transform="translate(149.5625,14.125)"/>
<path d="M0 0 C0.66 0 1.32 0 2 0 C2.04645007 10.66640084 2.08193345 21.3327774 2.10362434 31.999259 C2.11403768 36.95274886 2.12815196 41.90616925 2.15087891 46.85961914 C2.17269486 51.64475241 2.18458704 56.42981906 2.18975449 61.21499825 C2.19343457 63.03573212 2.20062068 64.85646257 2.21146011 66.67716789 C2.22609153 69.23790082 2.22797311 71.7983625 2.22705078 74.35913086 C2.23424133 75.10288467 2.24143188 75.84663849 2.24884033 76.6129303 C2.21329509 85.80196009 0.57514907 93.32279762 -6 100 C-11.15118549 104.27277281 -16.45228725 105.98449825 -23 107 C-22.97679687 108.12019531 -22.95359375 109.24039063 -22.9296875 110.39453125 C-22.91092763 111.86718084 -22.89272766 113.33983763 -22.875 114.8125 C-22.85824219 115.55048828 -22.84148437 116.28847656 -22.82421875 117.04882812 C-22.78925372 120.91246426 -22.80602445 122.70903668 -25 126 C-28.30367506 126.61766549 -29.66880029 126.21668429 -32.49072266 124.37046814 C-33.3729248 123.6255159 -34.25512695 122.88056366 -35.1640625 122.11303711 C-53.17032439 107.89664653 -67.15200042 105.51462444 -89.73498535 106.4753418 C-94.30113766 106.65104822 -98.87013818 106.70764311 -103.43899536 106.77211666 C-106.9879489 106.82279634 -110.53190182 106.89221836 -114.07861328 107.03065491 C-123.76207214 107.32192907 -133.57936973 106.81511179 -141.5078125 100.59375 C-143.8730304 98.06754869 -145.35769884 95.18446647 -146.859375 92.0859375 C-148.01116386 89.9795839 -149.31290359 88.67740045 -151 87 C-151 86.34 -151 85.68 -151 85 C-150.01 85 -149.02 85 -148 85 C-148 84.34 -148 83.68 -148 83 C-148.99 82.67 -149.98 82.34 -151 82 C-147.25 79 -147.25 79 -145 79 C-145.33 78.01 -145.66 77.02 -146 76 C-144.84765625 73.87109375 -144.84765625 73.87109375 -143.0625 71.4375 C-142.42054688 70.55449219 -141.77859375 69.67148438 -141.1171875 68.76171875 C-138.41021304 65.23066535 -135.58854785 61.80505799 -132.69921875 58.421875 C-130.79698055 55.71063894 -130.03161778 53.12895641 -129 50 C-126.1875 47.375 -126.1875 47.375 -123 45 C-122.113125 44.236875 -121.22625 43.47375 -120.3125 42.6875 C-118 41 -118 41 -115 41 C-115.144375 41.556875 -115.28875 42.11375 -115.4375 42.6875 C-116.71546672 47.94136317 -117.19646963 52.59708529 -117 58 C-116.01 58.33 -115.02 58.66 -114 59 C-114 59.66 -114 60.32 -114 61 C-113.01 61.33 -112.02 61.66 -111 62 C-111 62.99 -111 63.98 -111 65 C-110.01 65 -109.02 65 -108 65 C-107.731875 65.54527344 -107.46375 66.09054688 -107.1875 66.65234375 C-103.57619483 73.60173035 -99.11057945 80.55934345 -92.25 84.6328125 C-91.5075 85.08398438 -90.765 85.53515625 -90 86 C-90 86.66 -90 87.32 -90 88 C-89.484375 88.103125 -88.96875 88.20625 -88.4375 88.3125 C-86 89 -86 89 -82.75 90.4375 C-71.06949617 95.52282641 -57.38890811 95.92933489 -45.375 91.8125 C-40.18103516 89.70358156 -35.64047497 87.12339661 -31 84 C-30.34 84 -29.68 84 -29 84 C-29 83.34 -29 82.68 -29 82 C-28.34 82 -27.68 82 -27 82 C-27 81.34 -27 80.68 -27 80 C-26.34 80 -25.68 80 -25 80 C-24.59394531 79.13568359 -24.59394531 79.13568359 -24.1796875 78.25390625 C-22.9897289 75.98037607 -21.62522282 74.01682437 -20.125 71.9375 C-13.30315284 61.67145195 -12.06799105 50.98679426 -11 39 C-10.67 39 -10.34 39 -10 39 C-9.77213542 41.01822917 -9.54427083 43.03645833 -9.31640625 45.0546875 C-9.08707039 47.07404316 -9.08707039 47.07404316 -8 49 C-8.165 50.093125 -8.33 51.18625 -8.5 52.3125 C-8.96434503 55.7370446 -8.71213212 57.70638897 -8 61 C-8.3062434 62.33981486 -8.63451555 63.67511887 -9 65 C-8.67 65.66 -8.34 66.32 -8 67 C-8.66 67.66 -9.32 68.32 -10 69 C-10.33 68.34 -10.66 67.68 -11 67 C-12.54166642 68.37485532 -12.54166642 68.37485532 -14 70 C-14 70.66 -14 71.32 -14 72 C-15.44825386 73.44825386 -16.93251949 74.86078722 -18.4375 76.25 C-21.02615075 79.02806422 -22.47392855 81.54625935 -24 85 C-25.485 84.505 -25.485 84.505 -27 84 C-27.0825 84.5775 -27.165 85.155 -27.25 85.75 C-28.41697913 89.25093738 -30.73186425 91.36593212 -34 93 C-36.125 92.0625 -36.125 92.0625 -38 91 C-38 91.99 -38 92.98 -38 94 C-41 96 -41 96 -44.0625 95.9375 C-45.031875 95.958125 -46.00125 95.97875 -47 96 C-49.18490007 98.67642489 -49.18490007 98.67642489 -49 101 C-48.34 101.33 -47.68 101.66 -47 102 C-47.33 104.97 -47.66 107.94 -48 111 C-46.02 110.67 -44.04 110.34 -42 110 C-41.5875 110.94875 -41.175 111.8975 -40.75 112.875 C-38.94185262 116.10383461 -38.29799082 116.72335839 -35 118 C-34.34 118.66 -33.68 119.32 -33 120 C-32.05125 119.67 -31.1025 119.34 -30.125 119 C-27 118 -27 118 -25 118 C-25.03480469 117.09636719 -25.06960937 116.19273437 -25.10546875 115.26171875 C-25.13253906 114.08222656 -25.15960938 112.90273437 -25.1875 111.6875 C-25.22230469 110.51574219 -25.25710937 109.34398437 -25.29296875 108.13671875 C-25 105 -25 105 -23.71875 103.125 C-21.0074139 101.35030728 -18.17045906 101.29909991 -15 101 C-14.67 99.35 -14.34 97.7 -14 96 C-12.35 96.33 -10.7 96.66 -9 97 C-6.71687177 94.17623287 -6.71687177 94.17623287 -7 90.9375 C-7 88 -7 88 -5 86 C-4.01 85.67 -3.02 85.34 -2 85 C-2.01160156 84.35417969 -2.02320313 83.70835937 -2.03515625 83.04296875 C-2.08635644 77.6962063 -1.99372442 72.38550587 -1.66746521 67.04743958 C-0.83042458 53.31376602 -0.66089102 39.56700424 -0.4375 25.8125 C-0.39418584 23.29752076 -0.35056807 20.78254673 -0.30664062 18.26757812 C-0.20093435 12.17844091 -0.09894736 6.0892506 0 0 Z " fill="#952FCC" transform="translate(225,124)"/>
<path d="M0 0 C0.82008545 0.32436035 1.6401709 0.6487207 2.48510742 0.98291016 C7.60934629 3.043058 12.52814032 5.34440223 17.4375 7.875 C17.4375 9.195 17.4375 10.515 17.4375 11.875 C16.15166016 12.36419922 16.15166016 12.36419922 14.83984375 12.86328125 C8.99056289 15.09880122 3.16564527 17.34395906 -2.5625 19.875 C-2.3975 20.37 -2.2325 20.865 -2.0625 21.375 C-1.35561182 24.90944089 -1.50244845 28.27190701 -1.5625 31.875 C-2.13613281 31.58625 -2.70976562 31.2975 -3.30078125 31 C-16.81719396 25.09297897 -33.05671628 26.58548877 -46.5625 31.875 C-49.91065035 33.60846587 -53.09812088 35.44713973 -56.26953125 37.484375 C-58.5625 38.875 -58.5625 38.875 -60.5625 38.875 C-61.51511487 34.11192563 -61.64583357 29.7083472 -61.5625 24.875 C-65.5225 23.555 -69.4825 22.235 -73.5625 20.875 C-73.44823491 23.29260876 -73.32150339 25.70847218 -73.1875 28.125 C-73.1565625 28.80691406 -73.125625 29.48882812 -73.09375 30.19140625 C-72.87611983 33.92739079 -72.39869802 36.62690469 -70.5625 39.875 C-70.2420129 43.46445551 -70.17719873 45.99107355 -71.625 49.3125 C-74.51288552 51.64143994 -76.97826962 51.14550795 -80.5625 50.875 C-80.5625 50.215 -80.5625 49.555 -80.5625 48.875 C-81.2225 48.875 -81.8825 48.875 -82.5625 48.875 C-82.61666188 47.27120659 -82.65536638 45.66688594 -82.6875 44.0625 C-82.71070312 43.16917969 -82.73390625 42.27585938 -82.7578125 41.35546875 C-82.5625 38.875 -82.5625 38.875 -80.5625 35.875 C-80.36741258 32.98024702 -80.28370267 30.20423189 -80.3125 27.3125 C-80.30476563 26.53197266 -80.29703125 25.75144531 -80.2890625 24.94726562 C-80.12285887 20.43642038 -80.12285887 20.43642038 -82.5625 16.875 C-83.408125 16.545 -84.25375 16.215 -85.125 15.875 C-87.5625 14.875 -87.5625 14.875 -88.5625 12.875 C-87.28464351 10.31928703 -86.27151252 10.10564091 -83.6875 8.95703125 C-82.87514893 8.59311279 -82.06279785 8.22919434 -81.22583008 7.85424805 C-80.34693115 7.46922119 -79.46803223 7.08419434 -78.5625 6.6875 C-77.66490967 6.28893799 -76.76731934 5.89037598 -75.8425293 5.47973633 C-68.6832733 2.31966258 -61.46428524 -0.68300475 -54.21484375 -3.62890625 C-51.26718173 -4.83634428 -48.34530101 -6.0755611 -45.4375 -7.375 C-44.43203125 -7.81972656 -44.43203125 -7.81972656 -43.40625 -8.2734375 C-42.1607489 -8.84869013 -40.9311191 -9.45941785 -39.71875 -10.1015625 C-29.67080893 -15.16960295 -10.05893415 -3.99882705 0 0 Z " fill="#1C2B66" transform="translate(149.5625,14.125)"/>
<path d="M0 0 C0.66 0 1.32 0 2 0 C2.04645007 10.66640084 2.08193345 21.3327774 2.10362434 31.999259 C2.11403768 36.95274886 2.12815196 41.90616925 2.15087891 46.85961914 C2.17269486 51.64475241 2.18458704 56.42981906 2.18975449 61.21499825 C2.19343457 63.03573212 2.20062068 64.85646257 2.21146011 66.67716789 C2.22609153 69.23790082 2.22797311 71.7983625 2.22705078 74.35913086 C2.23424133 75.10288467 2.24143188 75.84663849 2.24884033 76.6129303 C2.21329509 85.80196009 0.57514907 93.32279762 -6 100 C-11.15118549 104.27277281 -16.45228725 105.98449825 -23 107 C-22.97679687 108.12019531 -22.95359375 109.24039063 -22.9296875 110.39453125 C-22.91092763 111.86718084 -22.89272766 113.33983763 -22.875 114.8125 C-22.85824219 115.55048828 -22.84148437 116.28847656 -22.82421875 117.04882812 C-22.78925372 120.91246426 -22.80602445 122.70903668 -25 126 C-28.30126402 126.61651363 -29.66747092 126.2174165 -32.48774719 124.3734436 C-33.36875595 123.62968475 -34.24976471 122.8859259 -35.1574707 122.11962891 C-53.17286459 107.90068868 -67.30734831 105.44024051 -89.91259766 106.30047607 C-93.77491745 106.42700249 -97.63789252 106.4464047 -101.50195312 106.4765625 C-109.00562188 106.55005335 -116.50034985 106.73594317 -124 107 C-123 105 -123 105 -119.8125 103.9375 C-110.82075472 101.72641509 -110.82075472 101.72641509 -107 103 C-105.10787263 103.22179785 -103.21115528 103.40614015 -101.3125 103.5625 C-100.31863281 103.64628906 -99.32476562 103.73007813 -98.30078125 103.81640625 C-97.54152344 103.87699219 -96.78226563 103.93757813 -96 104 C-96 103.34 -96 102.68 -96 102 C-89.4 102.66 -82.8 103.32 -76 104 C-76.66 103.01 -77.32 102.02 -78 101 C-78.99 101.495 -78.99 101.495 -80 102 C-80 99.36 -80 96.72 -80 94 C-78.7625 94.2784375 -78.7625 94.2784375 -77.5 94.5625 C-74.22982726 94.97127159 -71.61140338 94.74738421 -68.37890625 94.23828125 C-65.50983052 93.95090256 -62.75500207 94.12052239 -59.875 94.25 C-49.0495399 94.33801187 -39.81729734 89.93471936 -31 84 C-30.34 84 -29.68 84 -29 84 C-29 83.34 -29 82.68 -29 82 C-28.34 82 -27.68 82 -27 82 C-27 81.34 -27 80.68 -27 80 C-26.34 80 -25.68 80 -25 80 C-24.59394531 79.13568359 -24.59394531 79.13568359 -24.1796875 78.25390625 C-22.9897289 75.98037607 -21.62522282 74.01682437 -20.125 71.9375 C-13.30315284 61.67145195 -12.06799105 50.98679426 -11 39 C-10.67 39 -10.34 39 -10 39 C-9.77213542 41.01822917 -9.54427083 43.03645833 -9.31640625 45.0546875 C-9.08707039 47.07404316 -9.08707039 47.07404316 -8 49 C-8.165 50.093125 -8.33 51.18625 -8.5 52.3125 C-8.96434503 55.7370446 -8.71213212 57.70638897 -8 61 C-8.3062434 62.33981486 -8.63451555 63.67511887 -9 65 C-8.67 65.66 -8.34 66.32 -8 67 C-8.66 67.66 -9.32 68.32 -10 69 C-10.33 68.34 -10.66 67.68 -11 67 C-12.54166642 68.37485532 -12.54166642 68.37485532 -14 70 C-14 70.66 -14 71.32 -14 72 C-15.44825386 73.44825386 -16.93251949 74.86078722 -18.4375 76.25 C-21.02615075 79.02806422 -22.47392855 81.54625935 -24 85 C-25.485 84.505 -25.485 84.505 -27 84 C-27.0825 84.5775 -27.165 85.155 -27.25 85.75 C-28.41697913 89.25093738 -30.73186425 91.36593212 -34 93 C-36.125 92.0625 -36.125 92.0625 -38 91 C-38 91.99 -38 92.98 -38 94 C-41 96 -41 96 -44.0625 95.9375 C-45.031875 95.958125 -46.00125 95.97875 -47 96 C-49.18490007 98.67642489 -49.18490007 98.67642489 -49 101 C-48.34 101.33 -47.68 101.66 -47 102 C-47.33 104.97 -47.66 107.94 -48 111 C-46.02 110.67 -44.04 110.34 -42 110 C-41.5875 110.94875 -41.175 111.8975 -40.75 112.875 C-38.94185262 116.10383461 -38.29799082 116.72335839 -35 118 C-34.34 118.66 -33.68 119.32 -33 120 C-32.05125 119.67 -31.1025 119.34 -30.125 119 C-27 118 -27 118 -25 118 C-25.03480469 117.09636719 -25.06960937 116.19273437 -25.10546875 115.26171875 C-25.13253906 114.08222656 -25.15960938 112.90273437 -25.1875 111.6875 C-25.22230469 110.51574219 -25.25710937 109.34398437 -25.29296875 108.13671875 C-25 105 -25 105 -23.71875 103.125 C-21.0074139 101.35030728 -18.17045906 101.29909991 -15 101 C-14.67 99.35 -14.34 97.7 -14 96 C-12.35 96.33 -10.7 96.66 -9 97 C-6.71687177 94.17623287 -6.71687177 94.17623287 -7 90.9375 C-7 88 -7 88 -5 86 C-4.01 85.67 -3.02 85.34 -2 85 C-2.01160156 84.35417969 -2.02320313 83.70835937 -2.03515625 83.04296875 C-2.08635644 77.6962063 -1.99372442 72.38550587 -1.66746521 67.04743958 C-0.83042458 53.31376602 -0.66089102 39.56700424 -0.4375 25.8125 C-0.39418584 23.29752076 -0.35056807 20.78254673 -0.30664062 18.26757812 C-0.20093435 12.17844091 -0.09894736 6.0892506 0 0 Z " fill="#7233E7" transform="translate(225,124)"/>
<path d="M0 0 C0.33 0 0.66 0 1 0 C1 5.61 1 11.22 1 17 C2.32 16.01 3.64 15.02 5 14 C5.66 14.66 6.32 15.32 7 16 C6.41992188 16.80050781 6.41992188 16.80050781 5.828125 17.6171875 C-3.00939342 30.26096386 -5.86155998 43.4081273 -3.5859375 58.80078125 C-3.1156223 60.88912115 -2.58265051 62.9407085 -2 65 C-1.66013333 66.66534667 -1.32297514 68.33129513 -1 70 C-1.66 70 -2.32 70 -3 70 C-3.33 69.01 -3.66 68.02 -4 67 C-5.88370471 65.6830333 -5.88370471 65.6830333 -8 65 C-8.99 65.495 -8.99 65.495 -10 66 C-10.3689719 58.68889006 -9.81552726 52.78743178 -7 46 C-9.62901288 47.52206009 -11.84365964 48.84365964 -14 51 C-14.825 51.45375 -15.65 51.9075 -16.5 52.375 C-19.20673778 54.13437956 -19.84430145 55.06630367 -21 58 C-22.38776293 61.05562479 -24.06724513 63.46676463 -26.1875 66.0625 C-33.65774277 74.70574759 -33.65774277 74.70574759 -37 85 C-37.9590625 85.2165625 -37.9590625 85.2165625 -38.9375 85.4375 C-40.97545146 85.81007181 -40.97545146 85.81007181 -42 87 C-41.34 87.33 -40.68 87.66 -40 88 C-40 88.66 -40 89.32 -40 90 C-43.465 90.99 -43.465 90.99 -47 92 C-46.58005865 89.1653959 -45.9380902 87.92610765 -44.0625 85.6875 C-41.8056855 83.11220114 -41.8056855 83.11220114 -41.1875 79.8125 C-37.8891153 69.22294913 -28.67833111 60.67833111 -21 53 C-20.34 52.01 -19.68 51.02 -19 50 C-19.33 49.01 -19.66 48.02 -20 47 C-20.62588921 44.21827017 -21 41.86273993 -21 39 C-19 36.8125 -19 36.8125 -17 35 C-15.515 35.495 -15.515 35.495 -14 36 C-13.01 34.02 -12.02 32.04 -11 30 C-10.34 30 -9.68 30 -9 30 C-9 31.32 -9 32.64 -9 34 C-8.03409909 32.46306333 -7.07764001 30.92019122 -6.125 29.375 C-5.59132812 28.51648438 -5.05765625 27.65796875 -4.5078125 26.7734375 C-1.23898455 20.76082651 -0.63174507 15.33246492 -0.375 8.625 C-0.33632812 7.79355469 -0.29765625 6.96210937 -0.2578125 6.10546875 C-0.16425754 4.07064844 -0.08107287 2.03535584 0 0 Z M-12 37 C-11 39 -11 39 -11 39 Z M-18 38 C-18 38.66 -18 39.32 -18 40 C-17.34 40 -16.68 40 -16 40 C-16 39.34 -16 38.68 -16 38 C-16.66 38 -17.32 38 -18 38 Z " fill="#BE27A7" transform="translate(117,119)"/>
<path d="M0 0 C0.66 0 1.32 0 2 0 C2.04645007 10.66640084 2.08193345 21.3327774 2.10362434 31.999259 C2.11403768 36.95274886 2.12815196 41.90616925 2.15087891 46.85961914 C2.17269486 51.64475241 2.18458704 56.42981906 2.18975449 61.21499825 C2.19343457 63.03573212 2.20062068 64.85646257 2.21146011 66.67716789 C2.22609153 69.23790082 2.22797311 71.7983625 2.22705078 74.35913086 C2.23424133 75.10288467 2.24143188 75.84663849 2.24884033 76.6129303 C2.21329509 85.80196009 0.57514907 93.32279762 -6 100 C-11.15118549 104.27277281 -16.45228725 105.98449825 -23 107 C-22.97679687 108.12019531 -22.95359375 109.24039063 -22.9296875 110.39453125 C-22.91092763 111.86718084 -22.89272766 113.33983763 -22.875 114.8125 C-22.85824219 115.55048828 -22.84148437 116.28847656 -22.82421875 117.04882812 C-22.78925372 120.91246426 -22.80602445 122.70903668 -25 126 C-29.54726731 126.81510856 -32.0540576 125.02182154 -35.73828125 122.5 C-36.80498047 121.778125 -37.87167969 121.05625 -38.97070312 120.3125 C-40.08480742 119.54191529 -41.19873757 118.77107874 -42.3125 118 C-43.44524354 117.22810902 -44.5787003 116.45726356 -45.71289062 115.6875 C-48.48245341 113.80184023 -51.24426894 111.90579125 -54 110 C-50.58367707 109.02079916 -48.47071781 109.19906512 -45 110 C-44.01 110 -43.02 110 -42 110 C-41.5875 110.94875 -41.175 111.8975 -40.75 112.875 C-38.94185262 116.10383461 -38.29799082 116.72335839 -35 118 C-34.34 118.66 -33.68 119.32 -33 120 C-31.576875 119.505 -31.576875 119.505 -30.125 119 C-27 118 -27 118 -25 118 C-25.03480469 117.09636719 -25.06960937 116.19273437 -25.10546875 115.26171875 C-25.13253906 114.08222656 -25.15960938 112.90273437 -25.1875 111.6875 C-25.22230469 110.51574219 -25.25710937 109.34398437 -25.29296875 108.13671875 C-25 105 -25 105 -23.71875 103.125 C-21.0074139 101.35030728 -18.17045906 101.29909991 -15 101 C-14.67 99.35 -14.34 97.7 -14 96 C-12.35 96.33 -10.7 96.66 -9 97 C-6.71687177 94.17623287 -6.71687177 94.17623287 -7 90.9375 C-7 88 -7 88 -5 86 C-4.01 85.67 -3.02 85.34 -2 85 C-2.01160156 84.35417969 -2.02320313 83.70835937 -2.03515625 83.04296875 C-2.08635644 77.6962063 -1.99372442 72.38550587 -1.66746521 67.04743958 C-0.83042458 53.31376602 -0.66089102 39.56700424 -0.4375 25.8125 C-0.39418584 23.29752076 -0.35056807 20.78254673 -0.30664062 18.26757812 C-0.20093435 12.17844091 -0.09894736 6.0892506 0 0 Z " fill="#AC6DC3" transform="translate(225,124)"/>
<path d="M0 0 C1.41623216 -0.05447047 2.83308191 -0.09300508 4.25 -0.125 C5.03890625 -0.14820313 5.8278125 -0.17140625 6.640625 -0.1953125 C9.21228208 0.01757302 10.72835336 0.8447609 13 2 C13.66 1.67 14.32 1.34 15 1 C15.20753906 1.55429687 15.41507813 2.10859375 15.62890625 2.6796875 C16.59981965 4.96275582 17.57428935 6.9662657 19 9 C22.33216019 10.27367411 22.33216019 10.27367411 26 11 C29.79468232 12.99878316 32.55384526 14.66153577 33.9375 18.8125 C33.958125 19.534375 33.97875 20.25625 34 21 C30.91346865 21.91954398 28.27219204 22.05124872 25.0625 21.9375 C19.13348432 21.88526198 15.60242818 23.24987334 11 27 C9.68 25.68 8.36 24.36 7 23 C7.66 23 8.32 23 9 23 C8.67 19.7 8.34 16.4 8 13 C7.01 13.66 6.02 14.32 5 15 C4.32845067 13.71086513 3.66291141 12.41859796 3 11.125 C2.62875 10.40570313 2.2575 9.68640625 1.875 8.9453125 C1 7 1 7 1 5 C-0.32 4.67 -1.64 4.34 -3 4 C-1.68 4 -0.36 4 1 4 C0.67 2.68 0.34 1.36 0 0 Z " fill="#F8356F" transform="translate(134,43)"/>
<path d="M0 0 C2.89884652 7.09206171 4.55598177 13.34068545 5 21 C-1.27 21 -7.54 21 -14 21 C-15.52106634 17.95786733 -15.37429338 14.71952428 -15.5625 11.375 C-15.60568359 10.66859375 -15.64886719 9.9621875 -15.69335938 9.234375 C-15.79944751 7.48981463 -15.90022889 5.74493303 -16 4 C-15.37351563 3.79503906 -14.74703125 3.59007812 -14.1015625 3.37890625 C-13.28429687 3.10949219 -12.46703125 2.84007812 -11.625 2.5625 C-10.81289062 2.29566406 -10.00078125 2.02882812 -9.1640625 1.75390625 C-5.74901892 0.5641889 -3.70088559 -0.09739173 0 0 Z " fill="#D9318E" transform="translate(204,145)"/>
<path d="M0 0 C5.24833037 0.52483304 10.0580465 2.2538431 15 4 C15.25881098 9.95265252 14.27604787 15.17803161 13 21 C7.06 21 1.12 21 -5 21 C-5 11.97508897 -5 11.97508897 -3.0625 6.5625 C-2.70285156 5.53253906 -2.34320313 4.50257813 -1.97265625 3.44140625 C-1 1 -1 1 0 0 Z " fill="#C82CA0" transform="translate(122,145)"/>
<path d="M0 0 C6.27 0 12.54 0 19 0 C16.1875 14.33035714 16.1875 14.33035714 13 19 C7.86496656 18.35812082 3.0056546 17.31727753 -2 16 C-1.85566132 14.64567321 -1.70943339 13.29154775 -1.5625 11.9375 C-1.48128906 11.18339844 -1.40007812 10.42929688 -1.31640625 9.65234375 C-0.93176114 6.42797304 -0.45922801 3.21459609 0 0 Z " fill="#A240B4" transform="translate(190,171)"/>
<path d="M0 0 C5.94 0 11.88 0 18 0 C19.42812751 5.80176799 20 9.85257881 20 16 C15.38 17.32 10.76 18.64 6 20 C1.47169811 13.20754717 1.47169811 13.20754717 0.75 10 C0.60046875 9.38125 0.4509375 8.7625 0.296875 8.125 C-0.07810588 5.44092632 0 2.71014062 0 0 Z " fill="#A12FB1" transform="translate(117,171)"/>
<path d="M0 0 C0.66 5.28 1.32 10.56 2 16 C-4.93 16 -11.86 16 -19 16 C-19 11.05 -19 6.1 -19 1 C-12.55325517 0.35532552 -6.51387239 0 0 0 Z " fill="#D33D99" transform="translate(184,150)"/>
<path d="M0 0 C5.94 0.33 11.88 0.66 18 1 C18 5.95 18 10.9 18 16 C11.4 16 4.8 16 -2 16 C-1.125 4.5 -1.125 4.5 0 0 Z " fill="#C6399B" transform="translate(142,150)"/>
<path d="M0 0 C6.6 0 13.2 0 20 0 C19.125 12.75 19.125 12.75 18 15 C12.06 14.67 6.12 14.34 0 14 C0 9.38 0 4.76 0 0 Z " fill="#AD3DB5" transform="translate(165,171)"/>
<path d="M0 0 C1.46067199 0.45082469 2.91848032 0.91093537 4.375 1.375 C5.18710938 1.63023438 5.99921875 1.88546875 6.8359375 2.1484375 C9 3 9 3 11 5 C10.34 5 9.68 5 9 5 C9.11426509 7.41760876 9.24099661 9.83347218 9.375 12.25 C9.4059375 12.93191406 9.436875 13.61382812 9.46875 14.31640625 C9.68638017 18.05239079 10.16380198 20.75190469 12 24 C12.3204871 27.58945551 12.38530127 30.11607355 10.9375 33.4375 C8.04961448 35.76643994 5.58423038 35.27050795 2 35 C2 34.34 2 33.68 2 33 C1.34 33 0.68 33 0 33 C-0.05416188 31.39620659 -0.09286638 29.79188594 -0.125 28.1875 C-0.14820312 27.29417969 -0.17140625 26.40085937 -0.1953125 25.48046875 C0 23 0 23 2 20 C2.19543996 17.12588292 2.27875966 14.37117283 2.25 11.5 C2.25773437 10.72785156 2.26546875 9.95570312 2.2734375 9.16015625 C2.25993153 5.26368532 2.20675169 3.31012753 0 0 Z " fill="#F99D15" transform="translate(67,30)"/>
<path d="M0 0 C5.28 0.33 10.56 0.66 16 1 C15.13939979 6.16360126 14.42190508 8.54050604 11.9375 12.875 C11.38964844 13.84179688 10.84179688 14.80859375 10.27734375 15.8046875 C9.85582031 16.52914062 9.43429688 17.25359375 9 18 C8.34 18 7.68 18 7 18 C6.71125 18.61875 6.4225 19.2375 6.125 19.875 C5 22 5 22 3 24 C2.01 24 1.02 24 0 24 C-1.05553442 15.68766643 -1.38262688 8.29576126 0 0 Z " fill="#903DC9" transform="translate(165,189)"/>
<path d="M0 0 C6.6 0 13.2 0 20 0 C20 4.62 20 9.24 20 14 C14.06 14.33 8.12 14.66 2 15 C1.34 10.05 0.68 5.1 0 0 Z " fill="#9F32A4" transform="translate(140,171)"/>
<path d="M0 0 C8.07692152 4.03846076 12.80463357 11.70971752 16 20 C16 20.99 16 21.98 16 23 C14.64832143 23.34328345 13.29345725 23.67402697 11.9375 24 C11.18339844 24.185625 10.42929688 24.37125 9.65234375 24.5625 C7 25 7 25 0 25 C0 16.75 0 8.5 0 0 Z " fill="#EE4C89" transform="translate(165,122)"/>
<path d="M0 0 C0 8.25 0 16.5 0 25 C-6.56353916 25 -10.06473326 24.6957905 -16 23 C-14.29875352 15.85178015 -11.87327158 9.61987307 -7 4 C-6.34 4 -5.68 4 -5 4 C-5 3.34 -5 2.68 -5 2 C-2 0 -2 0 0 0 Z " fill="#EB2B80" transform="translate(160,122)"/>
<path d="M0 0 C0.33 0 0.66 0 1 0 C1 5.61 1 11.22 1 17 C2.32 16.01 3.64 15.02 5 14 C5.66 14.66 6.32 15.32 7 16 C6.41992188 16.80050781 6.41992188 16.80050781 5.828125 17.6171875 C-3.00939342 30.26096386 -5.86155998 43.4081273 -3.5859375 58.80078125 C-3.1156223 60.88912115 -2.58265051 62.9407085 -2 65 C-1.66013333 66.66534667 -1.32297514 68.33129513 -1 70 C-1.66 70 -2.32 70 -3 70 C-3.33 69.01 -3.66 68.02 -4 67 C-5.88370471 65.6830333 -5.88370471 65.6830333 -8 65 C-8.99 65.495 -8.99 65.495 -10 66 C-10.433422 57.84524526 -9.29370226 50.82316305 -7 43 C-10.465 45.475 -10.465 45.475 -14 48 C-13.125 42.25 -13.125 42.25 -12 40 C-10.68 40 -9.36 40 -8 40 C-7.67 39.34 -7.34 38.68 -7 38 C-8.485 38.495 -8.485 38.495 -10 39 C-9.4286639 35.04296852 -8.22425343 32.40819663 -6.0625 29.0625 C-1.7259306 22.33921918 -0.67511514 16.46550807 -0.375 8.625 C-0.31699219 7.37783203 -0.31699219 7.37783203 -0.2578125 6.10546875 C-0.16425754 4.07064844 -0.08107287 2.03535584 0 0 Z " fill="#B33899" transform="translate(117,119)"/>
<path d="M0 0 C3.25074369 6.50148737 0.759523 16.98797518 0 24 C-0.99 24 -1.98 24 -3 24 C-3 23.34 -3 22.68 -3 22 C-3.66 22 -4.32 22 -5 22 C-5 21.34 -5 20.68 -5 20 C-5.66 20 -6.32 20 -7 20 C-8.45833318 17.96310519 -9.77227051 15.95211133 -11.0625 13.8125 C-11.42666016 13.23435547 -11.79082031 12.65621094 -12.16601562 12.06054688 C-14.18554272 8.75688425 -15.65198154 5.88502244 -16 2 C-12.72498478 -1.27501522 -4.4213075 -0.0775668 0 0 Z " fill="#9031C4" transform="translate(160,189)"/>
<path d="M0 0 C0.33 0.99 0.66 1.98 1 3 C2.32 3 3.64 3 5 3 C5.25 5.25 5.25 5.25 5 8 C3.125 10.0625 3.125 10.0625 1 12 C0.4740625 13.051875 0.4740625 13.051875 -0.0625 14.125 C-1 16 -1 16 -4 18 C-3.67 18.99 -3.34 19.98 -3 21 C-3 21.99 -3 22.98 -3 24 C-4.11375 24.53625 -5.2275 25.0725 -6.375 25.625 C-9.44576082 27.34958891 -9.93019379 27.84217726 -11.4375 31.25 C-11.7159375 32.61125 -11.7159375 32.61125 -12 34 C-12.99 34 -13.98 34 -15 34 C-15.33 36.64 -15.66 39.28 -16 42 C-10.43140206 42.20624437 -5.61967088 41.64177338 -0.19921875 40.33984375 C2 40 2 40 5 41 C-0.58476069 44.58214448 -5.48257253 44.3564056 -11.875 44.1875 C-12.84953125 44.17396484 -13.8240625 44.16042969 -14.828125 44.14648438 C-17.21932863 44.11131962 -19.60936975 44.0621067 -22 44 C-23.125 39.25 -23.125 39.25 -22 37 C-21.34 37 -20.68 37 -20 37 C-19.73703125 36.43667969 -19.4740625 35.87335938 -19.203125 35.29296875 C-17.89547166 32.80078528 -16.38672978 30.60170989 -14.75 28.3125 C-14.12867188 27.42691406 -13.50734375 26.54132813 -12.8671875 25.62890625 C-11.72402914 24.01939668 -10.56594002 22.4202049 -9.3828125 20.83984375 C-4.75427545 14.42464344 -2.40173802 7.47089304 0 0 Z " fill="#ED554F" transform="translate(28,208)"/>
<path d="M0 0 C5.85272256 0.45020943 10.08220119 3.03839227 15 6 C15 6.66 15 7.32 15 8 C15.5775 8.2475 16.155 8.495 16.75 8.75 C19.34908658 10.19393699 21.07836838 11.73521987 23 14 C23 14.99 23 15.98 23 17 C21.42085985 17.53341184 19.83645613 18.05125763 18.25 18.5625 C17.36828125 18.85253906 16.4865625 19.14257812 15.578125 19.44140625 C12.80894011 20.04139631 11.61401185 19.99916077 9 19 C7.82739258 17.46533203 7.82739258 17.46533203 6.89453125 15.5078125 C6.37922852 14.45013672 6.37922852 14.45013672 5.85351562 13.37109375 C5.33821289 12.25927734 5.33821289 12.25927734 4.8125 11.125 C4.45736328 10.39152344 4.10222656 9.65804687 3.73632812 8.90234375 C2.32073229 5.95296191 1.03609416 3.10828248 0 0 Z " fill="#F13F7D" transform="translate(176,124)"/>
<path d="M0 0 C1.45741587 2.32591675 2.55095007 4.38380085 3.625 6.875 C6.01251204 12.48500357 6.01251204 12.48500357 10 17 C9.67 17.99 9.34 18.98 9 20 C7.06126858 19.04416032 5.1240567 18.08523808 3.1875 17.125 C2.10855469 16.59132812 1.02960938 16.05765625 -0.08203125 15.5078125 C-3 14 -3 14 -6 12 C-6 11.34 -6 10.68 -6 10 C-6.5775 9.7525 -7.155 9.505 -7.75 9.25 C-10.3002997 7.83316683 -12.01785701 6.12372463 -14 4 C-13.67 3.01 -13.34 2.02 -13 1 C-4.56521739 -1.8115942 -4.56521739 -1.8115942 0 0 Z " fill="#8F3BCA" transform="translate(140,193)"/>
<path d="M0 0 C-1.28921216 2.60540782 -2.58125596 5.20934373 -3.875 7.8125 C-4.23980469 8.55048828 -4.60460937 9.28847656 -4.98046875 10.04882812 C-5.51220703 11.11713867 -5.51220703 11.11713867 -6.0546875 12.20703125 C-6.37937012 12.8616333 -6.70405273 13.51623535 -7.03857422 14.19067383 C-8 16 -8 16 -10 19 C-11.60463449 18.68991116 -13.20869231 18.37683713 -14.8125 18.0625 C-15.70582031 17.88847656 -16.59914062 17.71445313 -17.51953125 17.53515625 C-20 17 -20 17 -23 16 C-21.63560848 10.84563204 -18.27426385 7.93351599 -14 5 C-13.34 5 -12.68 5 -12 5 C-12 4.34 -12 3.68 -12 3 C-10.75823305 2.29773859 -9.50614401 1.61370891 -8.25 0.9375 C-7.55390625 0.55464844 -6.8578125 0.17179687 -6.140625 -0.22265625 C-3.60551154 -1.14325402 -2.52836489 -0.74322814 0 0 Z " fill="#DD3F88" transform="translate(149,125)"/>
<path d="M0 0 C1.79232337 0.30871122 3.58384321 0.62209064 5.375 0.9375 C6.87160156 1.19853516 6.87160156 1.19853516 8.3984375 1.46484375 C11 2 11 2 13 3 C11.73882275 6.88862987 10.54735833 8.89375599 7 11 C6.34 11 5.68 11 5 11 C5 11.66 5 12.32 5 13 C0.14403099 17.05214647 -4.83863419 19.6890711 -11 21 C-11 17.49622015 -10.47111904 17.04197989 -8.3125 14.4375 C-4.79940459 9.95642581 -2.38515033 5.15023611 0 0 Z " fill="#893FC3" transform="translate(186,192)"/>
<path d="M0 0 C2.31 0.33 4.62 0.66 7 1 C6.67 4.3 6.34 7.6 6 11 C4.8354126 10.5155542 3.6708252 10.0311084 2.47094727 9.53198242 C-4.37779405 7.26329258 -11.40445402 7.51887176 -18.53515625 7.48828125 C-20.02446446 7.47140753 -21.51375866 7.45325372 -23.0030365 7.43388367 C-26.8941917 7.38666928 -30.78529009 7.35667633 -34.67663574 7.33044434 C-38.65888687 7.30049341 -42.64094275 7.25401358 -46.62304688 7.20898438 C-54.41526708 7.12327692 -62.207502 7.05578828 -70 7 C-69.67 6.34 -69.34 5.68 -69 5 C-34.845 4.505 -34.845 4.505 0 4 C0 2.68 0 1.36 0 0 Z " fill="#6035C2" transform="translate(171,224)"/>
<path d="M0 0 C4.09258525 2.23368206 7.43836927 4.38531165 9 8.875 C9 9.57625 9 10.2775 9 11 C5.91346865 11.91954398 3.27219204 12.05124872 0.0625 11.9375 C-5.36004218 11.88167971 -8.48703119 12.99135413 -13 16 C-13 15.01 -13 14.02 -13 13 C-12.34 13 -11.68 13 -11 13 C-11.02320313 12.38511719 -11.04640625 11.77023438 -11.0703125 11.13671875 C-11.08835938 10.32847656 -11.10640625 9.52023438 -11.125 8.6875 C-11.14820313 7.88699219 -11.17140625 7.08648437 -11.1953125 6.26171875 C-11 4 -11 4 -9 1 C-5.53713634 -0.15428789 -3.63824182 -0.4805225 0 0 Z " fill="#F39F31" transform="translate(159,53)"/>
<path d="M0 0 C0.33 0 0.66 0 1 0 C1.22786458 2.01822917 1.45572917 4.03645833 1.68359375 6.0546875 C1.91292961 8.07404316 1.91292961 8.07404316 3 10 C2.835 11.093125 2.67 12.18625 2.5 13.3125 C2.03565497 16.7370446 2.28786788 18.70638897 3 22 C2.6937566 23.33981486 2.36548445 24.67511887 2 26 C2.33 26.66 2.66 27.32 3 28 C2.34 28.66 1.68 29.32 1 30 C0.67 29.34 0.34 28.68 0 28 C-1.54166642 29.37485532 -1.54166642 29.37485532 -3 31 C-3 31.66 -3 32.32 -3 33 C-3.66 33.66 -4.32 34.32 -5 35 C-5.763125 35.78375 -6.52625 36.5675 -7.3125 37.375 C-9.79026006 39.79513774 -12.14050987 42.04350675 -15 44 C-15.99 43.67 -16.98 43.34 -18 43 C-17.34 43 -16.68 43 -16 43 C-16 42.34 -16 41.68 -16 41 C-15.34 41 -14.68 41 -14 41 C-13.72929687 40.42378906 -13.45859375 39.84757812 -13.1796875 39.25390625 C-11.9897289 36.98037607 -10.62522282 35.01682437 -9.125 32.9375 C-2.30315284 22.67145195 -1.06799105 11.98679426 0 0 Z " fill="#9048CA" transform="translate(214,163)"/>
<path d="M0 0 C3.63 0 7.26 0 11 0 C12.01801802 5.09009009 12.01801802 5.09009009 10 9 C10.29805007 11.19747131 10.29805007 11.19747131 11 13 C10.01 13.66 9.02 14.32 8 15 C5.4375 14.125 5.4375 14.125 3 13 C2.34 13 1.68 13 1 13 C0.01 13 -0.98 13 -2 13 C-1.34 8.71 -0.68 4.42 0 0 Z " fill="#AA30B7" transform="translate(192,173)"/>
<path d="M0 0 C0.33 0.66 0.66 1.32 1 2 C2.98 2 4.96 2 7 2 C7.33 2.99 7.66 3.98 8 5 C6.35 5.33 4.7 5.66 3 6 C3 6.66 3 7.32 3 8 C3.639375 8.12375 4.27875 8.2475 4.9375 8.375 C5.618125 8.58125 6.29875 8.7875 7 9 C7.33 9.66 7.66 10.32 8 11 C9.98 10.67 11.96 10.34 14 10 C14.99 11.485 14.99 11.485 16 13 C16.99 13.33 17.98 13.66 19 14 C19.6875 16.0625 19.6875 16.0625 20 18 C19.34 18 18.68 18 18 18 C17.67 18.99 17.34 19.98 17 21 C17 19.68 17 18.36 17 17 C15.96359375 16.59007813 14.9271875 16.18015625 13.859375 15.7578125 C12.48954661 15.2136341 11.11975698 14.66935813 9.75 14.125 C9.06808594 13.85558594 8.38617188 13.58617187 7.68359375 13.30859375 C4.99380138 12.2378997 2.33401658 11.16787662 -0.25390625 9.8671875 C-2.25671514 8.80179966 -2.25671514 8.80179966 -5.6875 8 C-6.780625 7.67 -7.87375 7.34 -9 7 C-9.33 6.34 -9.66 5.68 -10 5 C-8.28489314 1.56978628 -3.75681361 0 0 0 Z " fill="#23306F" transform="translate(71,22)"/>
<path d="M0 0 C4.95 0.99 4.95 0.99 10 2 C9.67 5.3 9.34 8.6 9 12 C12.3 12.33 15.6 12.66 19 13 C19 8.71 19 4.42 19 0 C19.33 0 19.66 0 20 0 C20 4.62 20 9.24 20 14 C14.06 14.33 8.12 14.66 2 15 C1.34 10.05 0.68 5.1 0 0 Z " fill="#B053BD" transform="translate(140,171)"/>
<path d="M0 0 C1.46067199 0.45082469 2.91848032 0.91093537 4.375 1.375 C5.18710938 1.63023438 5.99921875 1.88546875 6.8359375 2.1484375 C9 3 9 3 11 5 C10.34 5 9.68 5 9 5 C9 7.64 9 10.28 9 13 C8.67 13 8.34 13 8 13 C7.67 10.36 7.34 7.72 7 5 C6.34 5 5.68 5 5 5 C4.67 11.27 4.34 17.54 4 24 C3.34 24.33 2.68 24.66 2 25 C1.34786708 27.02463255 1.34786708 27.02463255 1 29 C1.66 29.33 2.32 29.66 3 30 C3 30.99 3 31.98 3 33 C6.465 32.505 6.465 32.505 10 32 C9.34650367 24.44961578 9.34650367 24.44961578 8 17 C11.67425459 21.63275578 12.41624496 25.06850933 12 31 C10.9375 33.4375 10.9375 33.4375 9 35 C5.3125 35.25 5.3125 35.25 2 35 C2 34.34 2 33.68 2 33 C1.34 33 0.68 33 0 33 C-0.05416188 31.39620659 -0.09286638 29.79188594 -0.125 28.1875 C-0.14820312 27.29417969 -0.17140625 26.40085937 -0.1953125 25.48046875 C0 23 0 23 2 20 C2.19543996 17.12588292 2.27875966 14.37117283 2.25 11.5 C2.25773437 10.72785156 2.26546875 9.95570312 2.2734375 9.16015625 C2.25993153 5.26368532 2.20675169 3.31012753 0 0 Z " fill="#EDAA5A" transform="translate(67,30)"/>
<path d="M0 0 C0.66 0 1.32 0 2 0 C2 8.25 2 16.5 2 25 C-4.56353916 25 -8.06473326 24.6957905 -14 23 C-12.34211897 16.30108234 -10.33788364 11.39304453 -6 6 C-5 8 -5 8 -5.9375 11.125 C-6.288125 12.07375 -6.63875 13.0225 -7 14 C-7.66 14 -8.32 14 -9 14 C-9.66 16.64 -10.32 19.28 -11 22 C-10.01 21.67 -9.02 21.34 -8 21 C-5.36 21.66 -2.72 22.32 0 23 C0 16.73 0 10.46 0 4 C-0.66 3.67 -1.32 3.34 -2 3 C-1.34 2.01 -0.68 1.02 0 0 Z " fill="#E06D98" transform="translate(158,122)"/>
<path d="M0 0 C3.3 0.33 6.6 0.66 10 1 C10 1.66 10 2.32 10 3 C10.99 3 11.98 3 13 3 C12.32116957 6.11547441 11.25893098 8.85137721 9.9375 11.75 C9.39416016 12.94882813 9.39416016 12.94882813 8.83984375 14.171875 C8.56269531 14.77515625 8.28554687 15.3784375 8 16 C6.68 16 5.36 16 4 16 C2.79422572 11.05632546 3.3709322 7.79137588 5 3 C3.68 4.32 2.36 5.64 1 7 C0.67 4.69 0.34 2.38 0 0 Z " fill="#8B30D1" transform="translate(165,190)"/>
<path d="M0 0 C0.33 0 0.66 0 1 0 C1 5.61 1 11.22 1 17 C2.32 16.01 3.64 15.02 5 14 C5.66 14.66 6.32 15.32 7 16 C6.41992188 16.80050781 6.41992188 16.80050781 5.828125 17.6171875 C0.81696323 24.78662191 -3.0712959 32.17731108 -4 41 C-4.33 41 -4.66 41 -5 41 C-5.33 39.35 -5.66 37.7 -6 36 C-7.98 36.495 -7.98 36.495 -10 37 C-9.60167969 36.29875 -9.20335938 35.5975 -8.79296875 34.875 C-8.26316406 33.92625 -7.73335938 32.9775 -7.1875 32 C-6.66542969 31.071875 -6.14335938 30.14375 -5.60546875 29.1875 C-2.08531072 22.19857311 -0.5358281 16.33562578 -0.3125 8.5 C-0.27833984 7.67757812 -0.24417969 6.85515625 -0.20898438 6.0078125 C-0.1275012 4.0056545 -0.06205425 2.00285432 0 0 Z " fill="#C35E96" transform="translate(117,119)"/>
<path d="M0 0 C0.33 0 0.66 0 1 0 C1.19322964 4.58939484 1.3717904 9.1790461 1.53710938 13.76953125 C1.59530802 15.32925499 1.65742859 16.88883774 1.72363281 18.44824219 C1.81840823 20.69700427 1.89880683 22.94590525 1.9765625 25.1953125 C2.00875885 25.8861795 2.0409552 26.57704651 2.0741272 27.28884888 C2.25712985 33.27859962 1.03175756 38.02960091 -2.5 42.875 C-2.9228125 43.47054687 -3.345625 44.06609375 -3.78125 44.6796875 C-4.1834375 45.11539063 -4.585625 45.55109375 -5 46 C-5.66 46 -6.32 46 -7 46 C-6.03644647 36.58997722 -6.03644647 36.58997722 -5 32 C-3.68 31.67 -2.36 31.34 -1 31 C-1.01160156 30.35417969 -1.02320313 29.70835937 -1.03515625 29.04296875 C-1.12809882 19.33710943 -0.5673084 9.68476486 0 0 Z " fill="#864ACC" transform="translate(224,178)"/>
<path d="M0 0 C0.33 0.66 0.66 1.32 1 2 C0.01 3.485 0.01 3.485 -1 5 C-1.66 4.67 -2.32 4.34 -3 4 C-3.0825 4.5775 -3.165 5.155 -3.25 5.75 C-4.41697913 9.25093738 -6.73186425 11.36593212 -10 13 C-12.125 12.0625 -12.125 12.0625 -14 11 C-14 11.99 -14 12.98 -14 14 C-17 16 -17 16 -19.48046875 15.7578125 C-20.37378906 15.54898438 -21.26710937 15.34015625 -22.1875 15.125 C-23.08855469 14.92132813 -23.98960937 14.71765625 -24.91796875 14.5078125 C-25.94857422 14.25644531 -25.94857422 14.25644531 -27 14 C-27 13.67 -27 13.34 -27 13 C-26.41734375 12.86464844 -25.8346875 12.72929687 -25.234375 12.58984375 C-17.69892044 10.61119452 -11.58046524 7.09533905 -5 3 C-3.33474202 1.99765593 -1.66854091 0.99686961 0 0 Z " fill="#763CD7" transform="translate(201,204)"/>
<path d="M0 0 C0.33 0.99 0.66 1.98 1 3 C2.32 3 3.64 3 5 3 C5.25 5.25 5.25 5.25 5 8 C3.125 10.0625 3.125 10.0625 1 12 C0.67 12.680625 0.34 13.36125 0 14.0625 C-1.25553255 16.49509432 -2.69730422 17.56081514 -5 19 C-5.66 19 -6.32 19 -7 19 C-6.67 20.32 -6.34 21.64 -6 23 C-6.99 23.66 -7.98 24.32 -9 25 C-9.66 24.34 -10.32 23.68 -11 23 C-10.43732422 22.26910156 -10.43732422 22.26910156 -9.86328125 21.5234375 C-4.9914677 14.77407365 -2.52832435 7.86465494 0 0 Z " fill="#E84F62" transform="translate(28,208)"/>
<path d="M0 0 C0.99 0 1.98 0 3 0 C3 0.66 3 1.32 3 2 C5.97 2.33 8.94 2.66 12 3 C11.01 5.31 10.02 7.62 9 10 C7.39536551 9.68991116 5.79130769 9.37683713 4.1875 9.0625 C2.84751953 8.80146484 2.84751953 8.80146484 1.48046875 8.53515625 C-1 8 -1 8 -4 7 C-2.92598892 4.08482708 -2.22189824 2.22189824 0 0 Z " fill="#DD2E8A" transform="translate(130,134)"/>
<path d="M0 0 C0.66 0 1.32 0 2 0 C1.67 2.31 1.34 4.62 1 7 C1.99 7.33 2.98 7.66 4 8 C3.67 8.99 3.34 9.98 3 11 C1.68 10.67 0.36 10.34 -1 10 C-1.66 11.98 -2.32 13.96 -3 16 C-4.65 16.33 -6.3 16.66 -8 17 C-9.25664978 14.09399739 -10 12.20395416 -10 9 C-8 6.8125 -8 6.8125 -6 5 C-5.01 5.33 -4.02 5.66 -3 6 C-2.01 4.02 -1.02 2.04 0 0 Z M-1 7 C0 9 0 9 0 9 Z M-7 8 C-7 8.66 -7 9.32 -7 10 C-6.34 10 -5.68 10 -5 10 C-5 9.34 -5 8.68 -5 8 C-5.66 8 -6.32 8 -7 8 Z " fill="#CB2C98" transform="translate(106,149)"/>
<path d="M0 0 C0.99 0 1.98 0 3 0 C3 3.63 3 7.26 3 11 C2.01 11.495 2.01 11.495 1 12 C0.34444881 14.52733235 0.34444881 14.52733235 0 17 C-0.66 17 -1.32 17 -2 17 C-6 11.58823529 -6 11.58823529 -6 9 C-5.34 9 -4.68 9 -4 9 C-3.67 7.35 -3.34 5.7 -3 4 C-2.01 3.67 -1.02 3.34 0 3 C0 2.01 0 1.02 0 0 Z " fill="#902FD0" transform="translate(155,192)"/>
<path d="M0 0 C0 3.69460186 -0.79294074 5.06503113 -3 8 C-5.62890625 9.36328125 -5.62890625 9.36328125 -8.5625 10.3125 C-9.53316406 10.63863281 -10.50382813 10.96476563 -11.50390625 11.30078125 C-14 12 -14 12 -16 12 C-16.33 12.99 -16.66 13.98 -17 15 C-17.6875 12.6875 -17.6875 12.6875 -18 10 C-17 8.25 -17 8.25 -15 7 C-11.3125 6.3125 -11.3125 6.3125 -8 6 C-7.67 4.35 -7.34 2.7 -7 1 C-6.21625 1.20625 -5.4325 1.4125 -4.625 1.625 C-3.75875 1.74875 -2.8925 1.8725 -2 2 C-1.34 1.34 -0.68 0.68 0 0 Z " fill="#794BDF" transform="translate(218,219)"/>
<path d="M0 0 C0.66 0 1.32 0 2 0 C2 0.99 2 1.98 2 3 C-0.31 3.66 -2.62 4.32 -5 5 C-5.02578125 5.6084375 -5.0515625 6.216875 -5.078125 6.84375 C-5.51702823 13.62679991 -6.82955597 19.8989234 -8.62792969 26.42773438 C-9.60449482 30.04371316 -10.22441529 33.25009298 -10 37 C-11.66666667 37 -13.33333333 37 -15 37 C-13.93760589 33.73109504 -12.81312265 30.53479467 -11.53125 27.34375 C-9.88269786 22.9664381 -9.04315145 18.60749602 -8.3125 14 C-8.18294922 13.22527344 -8.05339844 12.45054688 -7.91992188 11.65234375 C-7.60609991 9.76941199 -7.30200645 7.88486295 -7 6 C-7.66 5.67 -8.32 5.34 -9 5 C-8.43410156 4.72285156 -7.86820312 4.44570313 -7.28515625 4.16015625 C-6.55167969 3.79792969 -5.81820312 3.43570313 -5.0625 3.0625 C-3.96615234 2.52302734 -3.96615234 2.52302734 -2.84765625 1.97265625 C-1.03750973 1.13628173 -1.03750973 1.13628173 0 0 Z " fill="#D24B8E" transform="translate(97,48)"/>
<path d="M0 0 C3.25074369 6.50148737 0.759523 16.98797518 0 24 C-0.99 24 -1.98 24 -3 24 C-3 23.34 -3 22.68 -3 22 C-3.66 21.67 -4.32 21.34 -5 21 C-4.34 21 -3.68 21 -3 21 C-1.3501993 17.70039859 -1.61741639 14.00872116 -1.4375 10.375 C-1.39431641 9.57320312 -1.35113281 8.77140625 -1.30664062 7.9453125 C-1.20048543 5.9637489 -1.09973145 3.98189729 -1 2 C-4.96 2 -8.92 2 -13 2 C-13 2.66 -13 3.32 -13 4 C-12.34 4.33 -11.68 4.66 -11 5 C-11.33 6.98 -11.66 8.96 -12 11 C-14.48719271 8.08025204 -15.58572305 5.83206182 -16 2 C-12.72498478 -1.27501522 -4.4213075 -0.0775668 0 0 Z " fill="#AB79CD" transform="translate(160,189)"/>
<path d="M0 0 C0.74507812 0.09990234 1.49015625 0.19980469 2.2578125 0.30273438 C4.08945442 0.54930156 5.91986251 0.80500391 7.75 1.0625 C7.75 0.4025 7.75 -0.2575 7.75 -0.9375 C8.33120605 -0.87183838 8.91241211 -0.80617676 9.51123047 -0.73852539 C16.29446865 -0.01160683 23.05958736 0.36053424 29.875 0.625 C30.926875 0.66818359 31.97875 0.71136719 33.0625 0.75585938 C35.62490627 0.86068509 38.18738799 0.96285355 40.75 1.0625 C40.75 1.3925 40.75 1.7225 40.75 2.0625 C22.6 2.0625 4.45 2.0625 -14.25 2.0625 C-10.1084796 -2.0790204 -5.39422729 -0.76720017 0 0 Z " fill="#7739EF" transform="translate(121.25,226.9375)"/>
<path d="M0 0 C0.33 0 0.66 0 1 0 C1.66 2.31 2.32 4.62 3 7 C3.33 7 3.66 7 4 7 C6.11161731 16.41002278 6.11161731 16.41002278 7 21 C6.34 21 5.68 21 5 21 C4.67 20.01 4.34 19.02 4 18 C2.11629529 16.6830333 2.11629529 16.6830333 0 16 C-0.66 16.33 -1.32 16.66 -2 17 C-2.3690205 5.47835991 -2.3690205 5.47835991 0 0 Z " fill="#AE2CB0" transform="translate(109,168)"/>
<path d="M0 0 C0.825 0.185625 1.65 0.37125 2.5 0.5625 C5.81825533 0.97728192 8.48383538 0.69385079 11.765625 0.19140625 C15.87372744 -0.16051162 19.92780152 0.45759651 24 1 C21.2291481 3.7708519 18.35389927 3.6186353 14.625 4 C10.40853779 4.43618575 6.72202529 4.8245697 3 7 C2.01 7.33 1.02 7.66 0 8 C0 5.36 0 2.72 0 0 Z " fill="#854FDE" transform="translate(145,218)"/>
<path d="M0 0 C0.99 0 1.98 0 3 0 C3.50497667 11.46016499 2.56958435 21.05221228 -1 32 C-1.66 31.67 -2.32 31.34 -3 31 C-2.67 27.37 -2.34 23.74 -2 20 C-1.34 20 -0.68 20 0 20 C0.02697137 17.39576408 0.04682489 14.79180756 0.0625 12.1875 C0.07087891 11.44951172 0.07925781 10.71152344 0.08789062 9.95117188 C0.10259828 6.70077932 0.03531702 4.10595105 -1 1 C-0.67 0.67 -0.34 0.34 0 0 Z " fill="#CE4384" transform="translate(110,117)"/>
<path d="M0 0 C2 3 2 3 2 10 C-2.62 11.32 -7.24 12.64 -12 14 C-12.66 13.34 -13.32 12.68 -14 12 C-14 11.01 -14 10.02 -14 9 C-13.34 9 -12.68 9 -12 9 C-12 9.66 -12 10.32 -12 11 C-6.32133704 8.41878956 -2.50068072 5.83492168 0 0 Z " fill="#9D59BA" transform="translate(135,177)"/>
<path d="M0 0 C5.85272256 0.45020943 10.08220119 3.03839227 15 6 C11.51941029 8.32039314 11.01857088 8 7 8 C6.67 9.32 6.34 10.64 6 12 C4.99466333 10.37829621 3.99588093 8.75252763 3 7.125 C2.443125 6.22007812 1.88625 5.31515625 1.3125 4.3828125 C0 2 0 2 0 0 Z " fill="#EF6190" transform="translate(176,124)"/>
<path d="M0 0 C1.33855056 0.78281305 2.67073644 1.57651877 4 2.375 C5.11375 3.03628906 5.11375 3.03628906 6.25 3.7109375 C6.8275 4.13632813 7.405 4.56171875 8 5 C8 5.66 8 6.32 8 7 C9.32 7.33 10.64 7.66 12 8 C12 9.32 12 10.64 12 12 C12.66 12.33 13.32 12.66 14 13 C11.36 13 8.72 13 6 13 C5.34 11.02 4.68 9.04 4 7 C3.01 7 2.02 7 1 7 C0.67 4.69 0.34 2.38 0 0 Z " fill="#7C37D5" transform="translate(127,205)"/>
<path d="M0 0 C5.28 0.33 10.56 0.66 16 1 C15.13939979 6.16360126 14.42190508 8.54050604 11.9375 12.875 C11.38964844 13.84179688 10.84179688 14.80859375 10.27734375 15.8046875 C9.85582031 16.52914062 9.43429688 17.25359375 9 18 C8.34 18 7.68 18 7 18 C6.67 18.66 6.34 19.32 6 20 C6 19.34 6 18.68 6 18 C5.01 17.67 4.02 17.34 3 17 C4.65 17 6.3 17 8 17 C8.12246094 16.43796875 8.24492187 15.8759375 8.37109375 15.296875 C9.0519869 12.81013481 9.99352325 10.59485224 11.0625 8.25 C11.60583984 7.05117187 11.60583984 7.05117187 12.16015625 5.828125 C12.43730469 5.22484375 12.71445313 4.6215625 13 4 C12.01 4 11.02 4 10 4 C10 3.34 10 2.68 10 2 C6.7 1.67 3.4 1.34 0 1 C0 0.67 0 0.34 0 0 Z " fill="#9E64C4" transform="translate(165,189)"/>
<path d="M0 0 C0.125 5.75 0.125 5.75 -1 8 C-1.66 8 -2.32 8 -3 8 C-2.67 8.66 -2.34 9.32 -2 10 C1.465 9.505 1.465 9.505 5 9 C1.80009492 11.74277578 -1.00499382 13.6302836 -5 15 C-5.19551338 13.39679026 -5.38111983 11.79237014 -5.5625 10.1875 C-5.71912109 8.84751953 -5.71912109 8.84751953 -5.87890625 7.48046875 C-6 5 -6 5 -5 2 C-1.63157895 0 -1.63157895 0 0 0 Z " fill="#222C5E" transform="translate(94,38)"/>
<path d="M0 0 C0.99 0.33 1.98 0.66 3 1 C2.06725891 2.12894876 1.12859878 3.25300876 0.1875 4.375 C-0.33457031 5.00148437 -0.85664062 5.62796875 -1.39453125 6.2734375 C-3.9248502 8.99460776 -5.44193432 9.97811507 -9.1875 10.125 C-10.115625 10.08375 -11.04375 10.0425 -12 10 C-12.66 8.35 -13.32 6.7 -14 5 C-13.31292969 5.04640625 -12.62585938 5.0928125 -11.91796875 5.140625 C-10.56638672 5.19476563 -10.56638672 5.19476563 -9.1875 5.25 C-7.84751953 5.31960937 -7.84751953 5.31960937 -6.48046875 5.390625 C-3.84726679 5.24256844 -3.84726679 5.24256844 -2.23828125 3.046875 C-1.62533203 2.03367188 -1.62533203 2.03367188 -1 1 C-0.67 0.67 -0.34 0.34 0 0 Z " fill="#EB475B" transform="translate(44,237)"/>
<path d="M0 0 C0.33 0 0.66 0 1 0 C1.23818735 2.85824822 1.26154409 4.54573921 -0.1875 7.0625 C-3.61896235 10.73061493 -7.52924145 13.70420507 -12 16 C-12.66 15.67 -13.32 15.34 -14 15 C-5.72093023 5.41860465 -5.72093023 5.41860465 -3 3 C-2.34 3 -1.68 3 -1 3 C-0.67 2.01 -0.34 1.02 0 0 Z " fill="#ED4D9A" transform="translate(72,97)"/>
<path d="M0 0 C0.33 1.65 0.66 3.3 1 5 C-1.55068845 7.35448165 -2.71017358 7.98327924 -6.25 8.1875 C-7.1575 8.125625 -8.065 8.06375 -9 8 C-9.22223194 5.25913944 -9.34781139 3.56036279 -7.875 1.1875 C-5.22464043 -0.49106106 -3.06753576 -0.20450238 0 0 Z " fill="#FD9C11" transform="translate(158,55)"/>
<path d="M0 0 C0.33 0 0.66 0 1 0 C1.02703381 1.93742341 1.04641125 3.87495479 1.0625 5.8125 C1.07410156 6.89144531 1.08570313 7.97039062 1.09765625 9.08203125 C1 12 1 12 0 15 C1.65 14.34 3.3 13.68 5 13 C5.33 13.66 5.66 14.32 6 15 C9.57535019 16.0761054 9.57535019 16.0761054 13 15 C13.33 15.99 13.66 16.98 14 18 C13.67 18.33 13.34 18.66 13 19 C7.85446483 18.47494539 2.98724768 17.3124336 -2 16 C-1.42978066 10.6496441 -0.79265639 5.32212148 0 0 Z " fill="#A356B6" transform="translate(190,171)"/>
<path d="M0 0 C0.33 0.66 0.66 1.32 1 2 C-0.24430172 4.42638836 -1.48087781 6.4823079 -3.41796875 8.4140625 C-5.1492759 10.14964448 -6.59138353 11.97726553 -8.0625 13.9375 C-8.82240234 14.94103516 -8.82240234 14.94103516 -9.59765625 15.96484375 C-10.94142289 17.91498976 -11.99826007 19.85752273 -13 22 C-13.66 22 -14.32 22 -15 22 C-15.33 22.66 -15.66 23.32 -16 24 C-14.70724043 14.66892773 -6.47519774 6.47519774 0 0 Z " fill="#D42CA0" transform="translate(92,176)"/>
<path d="M0 0 C1.65 0 3.3 0 5 0 C3.68 0.33 2.36 0.66 1 1 C1 4.63 1 8.26 1 12 C6.61 12 12.22 12 18 12 C18 11.34 18 10.68 18 10 C18.66 10 19.32 10 20 10 C20 11.32 20 12.64 20 14 C13.4 14 6.8 14 0 14 C0 9.38 0 4.76 0 0 Z " fill="#B83B8A" transform="translate(166,152)"/>
<path d="M0 0 C0.66 0.33 1.32 0.66 2 1 C1.34 1.928125 0.68 2.85625 0 3.8125 C-2.26574554 6.79636556 -2.26574554 6.79636556 -2 10 C-2.9590625 10.2165625 -2.9590625 10.2165625 -3.9375 10.4375 C-5.97545146 10.81007181 -5.97545146 10.81007181 -7 12 C-6.34 12.33 -5.68 12.66 -5 13 C-5 13.66 -5 14.32 -5 15 C-7.31 15.66 -9.62 16.32 -12 17 C-10.81482597 10.79194554 -6.75754743 5.56650967 -2.125 1.4375 C-1.073125 0.7259375 -1.073125 0.7259375 0 0 Z " fill="#B327B7" transform="translate(82,194)"/>
<path d="M0 0 C0.92232422 0.10828125 0.92232422 0.10828125 1.86328125 0.21875 C3.07564453 0.35796875 3.07564453 0.35796875 4.3125 0.5 C5.51326172 0.63921875 5.51326172 0.63921875 6.73828125 0.78125 C9.11896555 1.04813463 9.11896555 1.04813463 12 1 C12.99 3.97 13.98 6.94 15 10 C11.13518578 8.61423779 8.03192572 6.81080359 4.6875 4.4375 C3.80449219 3.81746094 2.92148438 3.19742188 2.01171875 2.55859375 C1.34785156 2.04425781 0.68398437 1.52992188 0 1 C0 0.67 0 0.34 0 0 Z " fill="#845FDD" transform="translate(171,233)"/>
<path d="M0 0 C1.4800841 0.11362262 2.95910074 0.24122908 4.4375 0.375 C5.26121094 0.44460937 6.08492188 0.51421875 6.93359375 0.5859375 C7.95646484 0.79089844 7.95646484 0.79089844 9 1 C9.33 1.66 9.66 2.32 10 3 C11.98 2.67 13.96 2.34 16 2 C16.99 3.485 16.99 3.485 18 5 C18.99 5.33 19.98 5.66 21 6 C21.6875 8.0625 21.6875 8.0625 22 10 C21.34 10 20.68 10 20 10 C19.67 10.99 19.34 11.98 19 13 C19 11.68 19 10.36 19 9 C17.96359375 8.60167969 16.9271875 8.20335937 15.859375 7.79296875 C14.4894564 7.25813752 13.11967172 6.72296316 11.75 6.1875 C10.72712891 5.79594727 10.72712891 5.79594727 9.68359375 5.39648438 C6.05595111 3.9700812 2.99552463 2.57090129 0 0 Z " fill="#363F62" transform="translate(69,30)"/>
<path d="M0 0 C2 1 2 1 3 3 C3.33 2.01 3.66 1.02 4 0 C5.98 0.66 7.96 1.32 10 2 C8.625 3.5 8.625 3.5 7 5 C6.34 5 5.68 5 5 5 C4.67 5.66 4.34 6.32 4 7 C2.68 6.67 1.36 6.34 0 6 C0 6.66 0 7.32 0 8 C-0.99 8 -1.98 8 -3 8 C-3 6.02 -3 4.04 -3 2 C-2.01 2 -1.02 2 0 2 C0 1.34 0 0.68 0 0 Z " fill="#E13B8E" transform="translate(123,124)"/>
<path d="M0 0 C0.33 0 0.66 0 1 0 C1 3.3 1 6.6 1 10 C-1.97 10 -4.94 10 -8 10 C-8 9.01 -8 8.02 -8 7 C-7.01 6.67 -6.02 6.34 -5 6 C-3.60658034 4.59668626 -3.60658034 4.59668626 -2.375 2.9375 C-1.199375 1.4834375 -1.199375 1.4834375 0 0 Z " fill="#A92EBC" transform="translate(157,173)"/>
<path d="M0 0 C1.46067199 0.45082469 2.91848032 0.91093537 4.375 1.375 C5.18710938 1.63023438 5.99921875 1.88546875 6.8359375 2.1484375 C9 3 9 3 11 5 C10.34 5 9.68 5 9 5 C9 7.64 9 10.28 9 13 C8.67 13 8.34 13 8 13 C7.67 10.36 7.34 7.72 7 5 C6.34 5 5.68 5 5 5 C4.67 10.61 4.34 16.22 4 22 C3.67 22 3.34 22 3 22 C2.98018066 21.44014404 2.96036133 20.88028809 2.93994141 20.3034668 C2.84462217 17.76434146 2.73497247 15.22603112 2.625 12.6875 C2.5940625 11.80642578 2.563125 10.92535156 2.53125 10.01757812 C2.49257812 9.17001953 2.45390625 8.32246094 2.4140625 7.44921875 C2.3826416 6.66893311 2.3512207 5.88864746 2.31884766 5.0847168 C2.10412111 2.69844232 2.10412111 2.69844232 0 0 Z " fill="#D99F52" transform="translate(67,30)"/>
<path d="M0 0 C6.66666667 8.66666667 6.66666667 8.66666667 8 14 C3.05 12.02 3.05 12.02 -2 10 C-1.34 9.67 -0.68 9.34 0 9 C-0.185625 7.88625 -0.37125 6.7725 -0.5625 5.625 C-1 2 -1 2 0 0 Z " fill="#8850C6" transform="translate(142,199)"/>
<path d="M0 0 C2.93447357 2.93447357 2.46158423 6.18259456 2.625 10.125 C2.66367188 10.87910156 2.70234375 11.63320312 2.7421875 12.41015625 C2.83651031 14.27303184 2.91934662 16.13648255 3 18 C3.99 18 4.98 18 6 18 C6 17.34 6 16.68 6 16 C7.32 16.33 8.64 16.66 10 17 C7.19350987 20.43015461 5.79707049 20.4009765 1 22 C0.67 14.74 0.34 7.48 0 0 Z " fill="#C6337B" transform="translate(117,114)"/>
<path d="M0 0 C6.6 0 13.2 0 20 0 C20 0.66 20 1.32 20 2 C14.06 1.67 8.12 1.34 2 1 C2.33 4.96 2.66 8.92 3 13 C2.01 13.33 1.02 13.66 0 14 C0 9.38 0 4.76 0 0 Z " fill="#9E4B9E" transform="translate(165,171)"/>
<path d="M0 0 C3.71888239 0.50712033 6.73454239 1.11608215 10 3 C9.34 3 8.68 3 8 3 C7.67 3.99 7.34 4.98 7 6 C6.34 6 5.68 6 5 6 C5 5.01 5 4.02 5 3 C1.88214887 3.64644661 1.88214887 3.64644661 1 6 C1.99 6.33 2.98 6.66 4 7 C3.67 7.66 3.34 8.32 3 9 C2.01 9 1.02 9 0 9 C0 8.01 0 7.02 0 6 C-0.66 6 -1.32 6 -2 6 C-1.34 4.02 -0.68 2.04 0 0 Z " fill="#C45197" transform="translate(122,145)"/>
<path d="M0 0 C4.17799643 2.08899822 4.92391901 3.05544612 7 7 C6.34 7.66 5.68 8.32 5 9 C4.34 8.67 3.68 8.34 3 8 C2.67 12.95 2.34 17.9 2 23 C1.67 23 1.34 23 1 23 C0.67 15.41 0.34 7.82 0 0 Z " fill="#E4336D" transform="translate(165,122)"/>
<path d="M0 0 C-2 2 -2 2 -5 2.75 C-8.30709993 3.72305853 -8.30709993 3.72305853 -9.375 7.125 C-9.58125 8.07375 -9.7875 9.0225 -10 10 C-6.7 10 -3.4 10 0 10 C0 10.33 0 10.66 0 11 C-0.60328125 11.10957031 -1.2065625 11.21914062 -1.828125 11.33203125 C-7.93684987 12.50797128 -7.93684987 12.50797128 -13 16 C-13 15.01 -13 14.02 -13 13 C-12.34 13 -11.68 13 -11 13 C-11.02320313 12.38511719 -11.04640625 11.77023438 -11.0703125 11.13671875 C-11.08835938 10.32847656 -11.10640625 9.52023438 -11.125 8.6875 C-11.14820313 7.88699219 -11.17140625 7.08648437 -11.1953125 6.26171875 C-11 4 -11 4 -9 1 C-5.8035914 -0.06546953 -3.34252724 -0.07427838 0 0 Z " fill="#F39665" transform="translate(159,53)"/>
<path d="M0 0 C3.3 0.33 6.6 0.66 10 1 C9.01 3.64 8.02 6.28 7 9 C6.34 9 5.68 9 5 9 C5 7.02 5 5.04 5 3 C3.68 4.32 2.36 5.64 1 7 C0.67 4.69 0.34 2.38 0 0 Z " fill="#8A2CBE" transform="translate(165,190)"/>
<path d="M0 0 C2.0625 0.4375 2.0625 0.4375 4 1 C3.67 1.66 3.34 2.32 3 3 C3.185625 4.03125 3.37125 5.0625 3.5625 6.125 C4.0832444 10.73730756 3.31573566 13.58841572 2 18 C-0.83293634 15.16706366 -0.49317603 12.2427167 -0.6875 8.4375 C-0.73455078 7.73947266 -0.78160156 7.04144531 -0.83007812 6.32226562 C-0.93491375 4.55037178 -0.97276011 2.77478345 -1 1 C-0.67 0.67 -0.34 0.34 0 0 Z " fill="#CD549C" transform="translate(189,148)"/>
<path d="M0 0 C0.66 0.66 1.32 1.32 2 2 C1.83217469 3.87964351 1.64735572 5.759982 1.359375 7.625 C0.96290943 10.24512031 0.69225874 12.8624977 0.4375 15.5 C0.35371094 16.3559375 0.26992188 17.211875 0.18359375 18.09375 C0.12300781 18.7228125 0.06242187 19.351875 0 20 C-1.32 20.33 -2.64 20.66 -4 21 C-3.52626501 17.87415123 -3.04509049 14.74949284 -2.5625 11.625 C-2.42779297 10.73554688 -2.29308594 9.84609375 -2.15429688 8.9296875 C-2.02216797 8.07890625 -1.89003906 7.228125 -1.75390625 6.3515625 C-1.63345947 5.56604004 -1.5130127 4.78051758 -1.38891602 3.97119141 C-1 2 -1 2 0 0 Z " fill="#E44165" transform="translate(33,186)"/>
<path d="M0 0 C-2.61057433 3.91586149 -4.49054499 4.00639127 -9 5 C-11.9375 5.125 -11.9375 5.125 -14 5 C-14.33 4.01 -14.66 3.02 -15 2 C-9.68670645 -0.08989546 -5.71271928 -1.6112798 0 0 Z " fill="#6C37D7" transform="translate(178,219)"/>
<path d="M0 0 C-0.33 1.65 -0.66 3.3 -1 5 C-1.99 5 -2.98 5 -4 5 C-4 5.66 -4 6.32 -4 7 C-4.66 7 -5.32 7 -6 7 C-6.33 7.66 -6.66 8.32 -7 9 C-7.99 9 -8.98 9 -10 9 C-10 8.34 -10 7.68 -10 7 C-9.34 7 -8.68 7 -8 7 C-7.9175 6.05125 -7.835 5.1025 -7.75 4.125 C-7 1 -7 1 -5.125 -0.4375 C-3 -1 -3 -1 0 0 Z " fill="#F52F77" transform="translate(65,211)"/>
<path d="M0 0 C0.33 0 0.66 0 1 0 C1.22786458 2.01822917 1.45572917 4.03645833 1.68359375 6.0546875 C1.91292961 8.07404316 1.91292961 8.07404316 3 10 C2.81529851 15.72574627 2.81529851 15.72574627 2 18 C0.35 19.32 -1.3 20.64 -3 22 C-2.01 14.74 -1.02 7.48 0 0 Z " fill="#B659B1" transform="translate(214,163)"/>
<path d="M0 0 C0 0.66 0 1.32 0 2 C-0.66 2 -1.32 2 -2 2 C-1.67 2.99 -1.34 3.98 -1 5 C-1.33 5.99 -1.66 6.98 -2 8 C-4.875 8.1875 -4.875 8.1875 -8 8 C-8.66 7.01 -9.32 6.02 -10 5 C-8.28489314 1.56978628 -3.75681361 0 0 0 Z " fill="#424D79" transform="translate(71,22)"/>
<path d="M0 0 C1.65 0 3.3 0 5 0 C5 0.66 5 1.32 5 2 C6.32 2.33 7.64 2.66 9 3 C9 3.66 9 4.32 9 5 C2.375 7 2.375 7 -1 7 C-0.67 4.69 -0.34 2.38 0 0 Z " fill="#17265B" transform="translate(155,20)"/>
<path d="M0 0 C0.66 0.99 1.32 1.98 2 3 C1.67 3.99 1.34 4.98 1 6 C1.99 6.33 2.98 6.66 4 7 C2.73581754 7.69965443 1.46334598 8.38434763 0.1875 9.0625 C-0.52019531 9.44535156 -1.22789062 9.82820312 -1.95703125 10.22265625 C-4 11 -4 11 -7 10 C-6.57847656 9.44570312 -6.15695313 8.89140625 -5.72265625 8.3203125 C-5.17480469 7.59585938 -4.62695312 6.87140625 -4.0625 6.125 C-3.51722656 5.40570313 -2.97195312 4.68640625 -2.41015625 3.9453125 C-0.96035376 2.05642921 -0.96035376 2.05642921 0 0 Z " fill="#966DCB" transform="translate(181,202)"/>
<path d="M0 0 C0.99 0.33 1.98 0.66 3 1 C2.814375 2.11375 2.62875 3.2275 2.4375 4.375 C1.68319343 7.82568861 1.68319343 7.82568861 3 10 C2.34 10.66 1.68 11.32 1 12 C0.54625 11.505 0.0925 11.01 -0.375 10.5 C-1.87635519 8.77390663 -1.87635519 8.77390663 -4 9 C-3.46930939 5.17902761 -2.50298434 2.93828597 0 0 Z " fill="#9735BC" transform="translate(214,181)"/>
<path d="M0 0 C0.66 0.33 1.32 0.66 2 1 C2 2.65 2 4.3 2 6 C-3.94 6 -9.88 6 -16 6 C-15.67 5.01 -15.34 4.02 -15 3 C-10.05 3.33 -5.1 3.66 0 4 C0 2.68 0 1.36 0 0 Z " fill="#BC3C84" transform="translate(207,160)"/>
<path d="M0 0 C2.97 0.495 2.97 0.495 6 1 C6.33 3.31 6.66 5.62 7 8 C4 8 4 8 1.3125 5.5 C0.549375 4.675 -0.21375 3.85 -1 3 C-0.67 2.01 -0.34 1.02 0 0 Z " fill="#9852C6" transform="translate(127,194)"/>
<path d="M0 0 C0.33 0.99 0.66 1.98 1 3 C2.65 2.67 4.3 2.34 6 2 C6.43200679 6.75207471 4.98489083 9.78210698 3 14 C1.20724134 10.88089144 0.65709282 8.32317572 0.375 4.75 C0.30023438 3.85796875 0.22546875 2.9659375 0.1484375 2.046875 C0.09945312 1.37140625 0.05046875 0.6959375 0 0 Z " fill="#B356BF" transform="translate(117,171)"/>
<path d="M0 0 C0.33 0 0.66 0 1 0 C1 2.97 1 5.94 1 9 C-4.61 9 -10.22 9 -16 9 C-15.67 8.34 -15.34 7.68 -15 7 C-10.38 7 -5.76 7 -1 7 C-0.67 4.69 -0.34 2.38 0 0 Z " fill="#A5338B" transform="translate(134,157)"/>
<path d="M0 0 C0.99 0.33 1.98 0.66 3 1 C3 2.98 3 4.96 3 7 C2.34 7 1.68 7 1 7 C1 9.97 1 12.94 1 16 C0.34 16 -0.32 16 -1 16 C-2.24327778 10.15659442 -1.57300962 5.73303505 0 0 Z " fill="#E02A93" transform="translate(107,130)"/>
<path d="M0 0 C2.31 0.33 4.62 0.66 7 1 C6.67 1.66 6.34 2.32 6 3 C5.34 3 4.68 3 4 3 C4 3.99 4 4.98 4 6 C1.36 6.33 -1.28 6.66 -4 7 C-2.68 4.69 -1.36 2.38 0 0 Z " fill="#F52C7C" transform="translate(171,138)"/>
<path d="M0 0 C0.33 0 0.66 0 1 0 C1 5.61 1 11.22 1 17 C2.32 16.01 3.64 15.02 5 14 C5.66 14.66 6.32 15.32 7 16 C4.525 19.465 4.525 19.465 2 23 C0 21 0 21 -0.22705078 18.84521484 C-0.21657715 17.97590332 -0.20610352 17.1065918 -0.1953125 16.2109375 C-0.18886719 15.26992187 -0.18242188 14.32890625 -0.17578125 13.359375 C-0.15902344 12.37453125 -0.14226562 11.3896875 -0.125 10.375 C-0.11597656 9.38242188 -0.10695313 8.38984375 -0.09765625 7.3671875 C-0.07404116 4.91121866 -0.04110799 2.45572832 0 0 Z " fill="#E086B8" transform="translate(117,119)"/>
<path d="M0 0 C4.75 0.875 4.75 0.875 7 2 C7 3.32 7 4.64 7 6 C5.5682384 6.69937202 4.12932968 7.38412718 2.6875 8.0625 C1.88699219 8.44535156 1.08648437 8.82820313 0.26171875 9.22265625 C-2 10 -2 10 -5 9 C-4.34 7.68 -3.68 6.36 -3 5 C-3 5.66 -3 6.32 -3 7 C-0.69 6.34 1.62 5.68 4 5 C4 4.34 4 3.68 4 3 C2.68 2.67 1.36 2.34 0 2 C0 1.34 0 0.68 0 0 Z " fill="#595E7D" transform="translate(160,20)"/>
<path d="M0 0 C0.33 0 0.66 0 1 0 C1 6.93 1 13.86 1 21 C-3 19 -3 19 -4 16 C-3.0625 12.8125 -3.0625 12.8125 -2 10 C-1.67 10 -1.34 10 -1 10 C-0.67 6.7 -0.34 3.4 0 0 Z " fill="#7F35C3" transform="translate(158,191)"/>
<path d="M0 0 C0.33 0 0.66 0 1 0 C1.12527964 6.51454139 1.12527964 6.51454139 0.5 8.9375 C-0.30854493 12.27274782 -0.057047 15.57718 0 19 C-0.99 19.33 -1.98 19.66 -3 20 C-3.33 20.99 -3.66 21.98 -4 23 C-4.23136637 17.4978184 -3.4350346 12.86146222 -2 7.5625 C-1.80921875 6.83095703 -1.6184375 6.09941406 -1.421875 5.34570312 C-0.95549597 3.56180334 -0.47881722 1.78060155 0 0 Z " fill="#E76592" transform="translate(39,149)"/>
<path d="M0 0 C5.94 0 11.88 0 18 0 C17.67 0.99 17.34 1.98 17 3 C11.72 2.67 6.44 2.34 1 2 C0.67 2.99 0.34 3.98 0 5 C0 3.35 0 1.7 0 0 Z " fill="#9C3C92" transform="translate(191,171)"/>
<path d="M0 0 C-1 3 -1 3 -3.6171875 4.3515625 C-4.69226563 4.77179687 -5.76734375 5.19203125 -6.875 5.625 C-7.94492188 6.05039062 -9.01484375 6.47578125 -10.1171875 6.9140625 C-12.06419141 7.64748674 -14.02620624 8.34206875 -16 9 C-16.66 8.34 -17.32 7.68 -18 7 C-15.56568361 5.82625827 -13.12795818 4.66084237 -10.6875 3.5 C-9.99720703 3.16613281 -9.30691406 2.83226562 -8.59570312 2.48828125 C-3.33984375 0 -3.33984375 0 0 0 Z " fill="#4E5779" transform="translate(89,14)"/>
<path d="M0 0 C0.66 0.33 1.32 0.66 2 1 C2.59355614 3.64860427 2.74209269 6.29197322 3 9 C1.02 9.33 -0.96 9.66 -3 10 C-3 8.02 -3 6.04 -3 4 C-2.34 3.67 -1.68 3.34 -1 3 C-0.67 2.01 -0.34 1.02 0 0 Z " fill="#8137CD" transform="translate(185,198)"/>
<path d="M0 0 C1 2 1 2 0.0625 5.125 C-0.288125 6.07375 -0.63875 7.0225 -1 8 C-1.66 8 -2.32 8 -3 8 C-3.33 11.3 -3.66 14.6 -4 18 C-5.32 17.67 -6.64 17.34 -8 17 C-6.34211897 10.30108234 -4.33788364 5.39304453 0 0 Z " fill="#E36997" transform="translate(152,128)"/>
<path d="M0 0 C0.33 0 0.66 0 1 0 C1.05406122 1.93719378 1.09282025 3.87481921 1.125 5.8125 C1.14820313 6.89144531 1.17140625 7.97039062 1.1953125 9.08203125 C1 12 1 12 -1 15 C-3.625 15.1875 -3.625 15.1875 -6 15 C-6.33 14.01 -6.66 13.02 -7 12 C-4.625 10.9375 -4.625 10.9375 -2 10 C-1.34 10.33 -0.68 10.66 0 11 C0 7.37 0 3.74 0 0 Z " fill="#9277E5" transform="translate(201,235)"/>
<path d="M0 0 C0.66 1.98 1.32 3.96 2 6 C-2.75 5.125 -2.75 5.125 -5 4 C-5 3.01 -5 2.02 -5 1 C-6.32 0.67 -7.64 0.34 -9 0 C-5.67465243 -1.10844919 -3.37817425 -0.84454356 0 0 Z " fill="#9D5BC5" transform="translate(140,193)"/>
<path d="M0 0 C0.33 0.66 0.66 1.32 1 2 C0.01 3.485 0.01 3.485 -1 5 C-1.66 4.67 -2.32 4.34 -3 4 C-3.103125 4.598125 -3.20625 5.19625 -3.3125 5.8125 C-4.08876455 8.28243264 -5.07088921 9.32251235 -7 11 C-7.66 10.67 -8.32 10.34 -9 10 C-9.625 7.9375 -9.625 7.9375 -10 6 C-9.36191406 5.65066406 -8.72382813 5.30132812 -8.06640625 4.94140625 C-7.24011719 4.48636719 -6.41382813 4.03132812 -5.5625 3.5625 C-4.73878906 3.11003906 -3.91507813 2.65757812 -3.06640625 2.19140625 C-1.07691202 1.16337603 -1.07691202 1.16337603 0 0 Z " fill="#7A38D2" transform="translate(201,204)"/>
<path d="M0 0 C1.32 0.33 2.64 0.66 4 1 C4.28571429 8.42857143 4.28571429 8.42857143 2 12 C1.71125 11.030625 1.4225 10.06125 1.125 9.0625 C0.35785318 5.89335797 0.35785318 5.89335797 -2 5 C-1.34 3.35 -0.68 1.7 0 0 Z " fill="#CA58A5" transform="translate(133,148)"/>
<path d="M0 0 C0.99 0.33 1.98 0.66 3 1 C2.125 4.875 2.125 4.875 1 6 C-1.33297433 6.04092937 -3.66705225 6.04241723 -6 6 C-6 5.01 -6 4.02 -6 3 C-5.01 2.67 -4.02 2.34 -3 2 C-2.34 2.33 -1.68 2.66 -1 3 C-0.67 2.01 -0.34 1.02 0 0 Z " fill="#F52C73" transform="translate(192,135)"/>
<path d="M0 0 C0.99 0.33 1.98 0.66 3 1 C3.99 0.67 4.98 0.34 6 0 C6 0.66 6 1.32 6 2 C5.34 2 4.68 2 4 2 C3.731875 2.61875 3.46375 3.2375 3.1875 3.875 C2 6 2 6 -1 8 C-1.72965366 10.56282742 -1.72965366 10.56282742 -2 13 C-2.66 12.34 -3.32 11.68 -4 11 C-3.5247412 9.35303396 -3.04468109 7.70745272 -2.5625 6.0625 C-2.29566406 5.14597656 -2.02882813 4.22945313 -1.75390625 3.28515625 C-1 1 -1 1 0 0 Z " fill="#F22E8A" transform="translate(83,84)"/>
<path d="M0 0 C0.66 2.31 1.32 4.62 2 7 C1.34 7.66 0.68 8.32 0 9 C-0.66 6.69 -1.32 4.38 -2 2 C-4.31 2.66 -6.62 3.32 -9 4 C-9.66 3.34 -10.32 2.68 -11 2 C-7.17679443 0.57741188 -4.08718695 -0.24042276 0 0 Z " fill="#DB6494" transform="translate(204,145)"/>
<path d="M0 0 C0.99 0.33 1.98 0.66 3 1 C-0.20760251 4.80635497 -3.40746109 8.54563567 -7 12 C-7.125 9.625 -7.125 9.625 -7 7 C-6.34 6.34 -5.68 5.68 -5 5 C-5 4.34 -5 3.68 -5 3 C-3.35 2.67 -1.7 2.34 0 2 C0 1.34 0 0.68 0 0 Z " fill="#E76690" transform="translate(61,216)"/>
<path d="M0 0 C0.99 0 1.98 0 3 0 C3.185625 1.7015625 3.185625 1.7015625 3.375 3.4375 C3.684375 5.2009375 3.684375 5.2009375 4 7 C4.66 7.33 5.32 7.66 6 8 C5.67 8.66 5.34 9.32 5 10 C4.34 10 3.68 10 3 10 C2.67 11.32 2.34 12.64 2 14 C1.66179834 12.4176994 1.32964061 10.83410625 1 9.25 C0.814375 8.36828125 0.62875 7.4865625 0.4375 6.578125 C0 4 0 4 0 0 Z " fill="#DD5F9D" transform="translate(211,149)"/>
<path d="M0 0 C3 0 3 0 4.5 1.4375 C6.63604094 5.08656994 7.78443107 8.96534567 9 13 C8.01 13.495 8.01 13.495 7 14 C6.01780373 12.23084525 5.03934641 10.45961431 4.0625 8.6875 C3.51722656 7.70136719 2.97195312 6.71523437 2.41015625 5.69921875 C1 3 1 3 0 0 Z " fill="#E26090" transform="translate(203,135)"/>
<path d="M0 0 C1.19109375 0.40798828 1.19109375 0.40798828 2.40625 0.82421875 C3.2003125 1.08847656 3.994375 1.35273437 4.8125 1.625 C6.90625 2.51171875 6.90625 2.51171875 8.90625 4.51171875 C6.92625 5.50171875 6.92625 5.50171875 4.90625 6.51171875 C4.90625 5.85171875 4.90625 5.19171875 4.90625 4.51171875 C0.45125 3.52171875 0.45125 3.52171875 -4.09375 2.51171875 C-4.09375 1.85171875 -4.09375 1.19171875 -4.09375 0.51171875 C-2.09375 -0.48828125 -2.09375 -0.48828125 0 0 Z " fill="#E52A78" transform="translate(104.09375,98.48828125)"/>
<path d="M0 0 C2.97 0.495 2.97 0.495 6 1 C4.98823563 4.40320742 4.35156418 5.75725331 1.375 7.8125 C0.59125 8.204375 -0.1925 8.59625 -1 9 C-1 7.68 -1 6.36 -1 5 C-0.34 5 0.32 5 1 5 C0.67 3.35 0.34 1.7 0 0 Z " fill="#935DC7" transform="translate(193,194)"/>
<path d="M0 0 C0.33 0 0.66 0 1 0 C1.33 5.28 1.66 10.56 2 16 C-0.475 15.01 -0.475 15.01 -3 14 C-3 12.35 -3 10.7 -3 9 C-2.01 9.495 -2.01 9.495 -1 10 C-0.67 6.7 -0.34 3.4 0 0 Z " fill="#F32B66" transform="translate(141,74)"/>
<path d="M0 0 C0.99 0 1.98 0 3 0 C3.25 2.25 3.25 2.25 3 5 C1 7.3125 1 7.3125 -1 9 C-2 8 -2 8 -2.1875 5.625 C-2 3 -2 3 0 0 Z " fill="#FC3352" transform="translate(30,211)"/>
<path d="M0 0 C0.66 0 1.32 0 2 0 C1.71572583 1.58467728 1.42225182 3.1677057 1.125 4.75 C0.88136719 6.07257813 0.88136719 6.07257813 0.6328125 7.421875 C0.03203736 9.86947744 -0.77997117 11.80599857 -2 14 C-3.03159626 10.90521121 -2.97482862 9.47368607 -2.5625 6.3125 C-2.46066406 5.50425781 -2.35882813 4.69601563 -2.25390625 3.86328125 C-2.17011719 3.24839844 -2.08632812 2.63351563 -2 2 C-1.34 2 -0.68 2 0 2 C0 1.34 0 0.68 0 0 Z " fill="#D04A95" transform="translate(110,135)"/>
<path d="M0 0 C0 0.99 0 1.98 0 3 C1.98 3 3.96 3 6 3 C5.67 3.66 5.34 4.32 5 5 C3.54119891 4.85892253 2.08296449 4.71197585 0.625 4.5625 C-0.59316406 4.44068359 -0.59316406 4.44068359 -1.8359375 4.31640625 C-4 4 -4 4 -6 3 C-6 2.34 -6 1.68 -6 1 C-4 0 -4 0 0 0 Z " fill="#EF366D" transform="translate(187,117)"/>
<path d="M0 0 C3.6875 0.875 3.6875 0.875 7 2 C6.34 2.66 5.68 3.32 5 4 C5 3.34 5 2.68 5 2 C3.02 2.99 3.02 2.99 1 4 C1 4.66 1 5.32 1 6 C-1.64 5.34 -4.28 4.68 -7 4 C-6.1028125 3.566875 -6.1028125 3.566875 -5.1875 3.125 C-2.80672208 1.95257974 -2.80672208 1.95257974 0 0 Z " fill="#3F486D" transform="translate(115,2)"/>
<path d="M0 0 C2 3 2 3 1.6875 5.625 C1 8 1 8 0 9 C-1.99958364 9.04080783 -4.00045254 9.04254356 -6 9 C-4.625 6.5 -4.625 6.5 -3 4 C-2.34 4 -1.68 4 -1 4 C-0.67 2.68 -0.34 1.36 0 0 Z " fill="#A84DC1" transform="translate(135,177)"/>
<path d="M0 0 C1.32 0.33 2.64 0.66 4 1 C3.67 1.99 3.34 2.98 3 4 C1.68 3.67 0.36 3.34 -1 3 C-1.66 4.98 -2.32 6.96 -3 9 C-4.65 9.33 -6.3 9.66 -8 10 C-8 8.68 -8 7.36 -8 6 C-6.68 6 -5.36 6 -4 6 C-3.34 4.68 -2.68 3.36 -2 2 C-1.34 2 -0.68 2 0 2 C0 1.34 0 0.68 0 0 Z " fill="#DB62BE" transform="translate(106,156)"/>
<path d="M0 0 C0.66 0.33 1.32 0.66 2 1 C2.66 1 3.32 1 4 1 C3.67 1.99 3.34 2.98 3 4 C2.34 4 1.68 4 1 4 C1.33 4.99 1.66 5.98 2 7 C1.01 7.33 0.02 7.66 -1 8 C-3 5 -3 5 -3 1 C-2.01 0.67 -1.02 0.34 0 0 Z " fill="#F22D79" transform="translate(212,138)"/>
<path d="M0 0 C0.99 0 1.98 0 3 0 C3 0.66 3 1.32 3 2 C2.01 2.495 2.01 2.495 1 3 C1 3.66 1 4.32 1 5 C1.66 5.66 2.32 6.32 3 7 C-0.01031744 7.93423645 -0.86650268 8.04449911 -4 7 C-2.92598892 4.08482708 -2.22189824 2.22189824 0 0 Z " fill="#D14E91" transform="translate(130,134)"/>
<path d="M0 0 C-2.475 4.455 -2.475 4.455 -5 9 C-5.66 7.68 -6.32 6.36 -7 5 C-6.67 4.34 -6.34 3.68 -6 3 C-5.34 3.33 -4.68 3.66 -4 4 C-4 3.34 -4 2.68 -4 2 C-5.32 1.67 -6.64 1.34 -8 1 C-4.59449725 -1.06762667 -4.18836538 -1.04709135 0 0 Z " fill="#DA5D8A" transform="translate(149,125)"/>
<path d="M0 0 C5.75 0.875 5.75 0.875 8 2 C7.67 3.32 7.34 4.64 7 6 C4.625 5.8125 4.625 5.8125 2 5 C0.6875 2.4375 0.6875 2.4375 0 0 Z " fill="#E24672" transform="translate(176,124)"/>
<path d="M0 0 C1 2 1 2 0.4375 5.4375 C-1 9 -1 9 -4.125 10.9375 C-5.07375 11.288125 -6.0225 11.63875 -7 12 C-5.44298069 7.32894208 -2.91552627 3.91294315 0 0 Z " fill="#ED5497" transform="translate(57,113)"/>
<path d="M0 0 C3.71599191 -0.20086443 4.77208445 -0.1519437 8 2 C8 2.99 8 3.98 8 5 C7.34 5 6.68 5 6 5 C5.67 5.33 5.34 5.66 5 6 C4.34 6.66 3.68 7.32 3 8 C2.34 7.67 1.68 7.34 1 7 C0.59270772 4.67843403 0.25561323 2.3431213 0 0 Z M3 1 C4 3 4 3 4 3 Z " fill="#E55290" transform="translate(104,103)"/>
<path d="M0 0 C1.04449911 3.13349732 0.93423645 3.98968256 0 7 C-3.875 6.125 -3.875 6.125 -5 5 C-6.66617115 4.95936168 -8.33388095 4.957279 -10 5 C-7.90217213 2.90217213 -6.6200793 2.3490604 -3.875 1.375 C-3.15054688 1.11460938 -2.42609375 0.85421875 -1.6796875 0.5859375 C-0.84824219 0.29589844 -0.84824219 0.29589844 0 0 Z " fill="#444E7A" transform="translate(99,9)"/>
<path d="M0 0 C0.33 0 0.66 0 1 0 C1.83796731 4.65537393 2.0161692 8.37078475 1 13 C0.67 13 0.34 13 0 13 C-0.33 11.35 -0.66 9.7 -1 8 C-2.32 8.33 -3.64 8.66 -5 9 C-3.35 6.03 -1.7 3.06 0 0 Z " fill="#C65FA8" transform="translate(112,147)"/>
<path d="M0 0 C2.475 0.495 2.475 0.495 5 1 C5.33 2.65 5.66 4.3 6 6 C6.66 6 7.32 6 8 6 C8.33 7.32 8.66 8.64 9 10 C8.01 10 7.02 10 6 10 C5.73445313 9.44570312 5.46890625 8.89140625 5.1953125 8.3203125 C4.84210938 7.59585938 4.48890625 6.87140625 4.125 6.125 C3.77695313 5.40570313 3.42890625 4.68640625 3.0703125 3.9453125 C2.03442457 1.84864981 2.03442457 1.84864981 0 0 Z " fill="#AF66C3" transform="translate(74,210)"/>
<path d="M0 0 C2.64 1.65 5.28 3.3 8 5 C7.67 5.66 7.34 6.32 7 7 C4 8 4 8 1 7 C0.67 4.69 0.34 2.38 0 0 Z " fill="#8E50D4" transform="translate(127,205)"/>
<path d="M0 0 C1.32 0 2.64 0 4 0 C4 0.66 4 1.32 4 2 C4.66 2 5.32 2 6 2 C7.125 5.75 7.125 5.75 6 8 C5.34 8 4.68 8 4 8 C0 2.58823529 0 2.58823529 0 0 Z " fill="#914FCF" transform="translate(149,201)"/>
<path d="M0 0 C0.66 1.32 1.32 2.64 2 4 C1.01 4.495 1.01 4.495 0 5 C-0.65213292 7.02463255 -0.65213292 7.02463255 -1 9 C-0.34 9.33 0.32 9.66 1 10 C1.625 12.0625 1.625 12.0625 2 14 C0.68 13.67 -0.64 13.34 -2 13 C-2.05416188 11.39620659 -2.09286638 9.79188594 -2.125 8.1875 C-2.14820312 7.29417969 -2.17140625 6.40085937 -2.1953125 5.48046875 C-2 3 -2 3 0 0 Z " fill="#EE9D3C" transform="translate(69,50)"/>
<path d="M0 0 C1.670625 0.37125 1.670625 0.37125 3.375 0.75 C3.705 1.41 4.035 2.07 4.375 2.75 C0.25331311 4.37950412 -2.33200357 5.01264601 -6.625 3.75 C-6.625 3.09 -6.625 2.43 -6.625 1.75 C-3.625 -0.25 -3.625 -0.25 0 0 Z " fill="#8439DA" transform="translate(101.625,226.25)"/>
<path d="M0 0 C0.33 0 0.66 0 1 0 C1.375 2.1875 1.375 2.1875 1 5 C-0.82787641 7.19925447 -2.56512539 8.37675026 -5 10 C-5.99 9.67 -6.98 9.34 -8 9 C-7.34 9 -6.68 9 -6 9 C-6 8.34 -6 7.68 -6 7 C-5.34 7 -4.68 7 -4 7 C-3.71125 6.401875 -3.4225 5.80375 -3.125 5.1875 C-2 3 -2 3 0 0 Z " fill="#8C5AC7" transform="translate(204,197)"/>
<path d="M0 0 C2.41821796 3.62732695 2.0586305 4.48350057 1.25 8.625 C1.06953125 9.60726562 0.8890625 10.58953125 0.703125 11.6015625 C0.47109375 12.39304688 0.2390625 13.18453125 0 14 C-0.99 14.495 -0.99 14.495 -2 15 C-2.19392201 9.47322267 -1.7479503 5.24385089 0 0 Z " fill="#C97FB9" transform="translate(119,151)"/>
<path d="M0 0 C0.99 0.495 0.99 0.495 2 1 C1.34 1.66 0.68 2.32 0 3 C0 2.01 0 1.02 0 0 Z M-1.8125 3.375 C-1.214375 3.58125 -0.61625 3.7875 0 4 C-0.66 4 -1.32 4 -2 4 C-2.33 5.32 -2.66 6.64 -3 8 C-4.32 8 -5.64 8 -7 8 C-7 7.01 -7 6.02 -7 5 C-4 3 -4 3 -1.8125 3.375 Z " fill="#F12D8E" transform="translate(99,48)"/>
<path d="M0 0 C1.32 0.33 2.64 0.66 4 1 C4 2.32 4 3.64 4 5 C0.91190305 6.76462683 -0.23312136 7 -4 7 C-4 6.34 -4 5.68 -4 5 C-2.68 4.67 -1.36 4.34 0 4 C0 2.68 0 1.36 0 0 Z " fill="#F63840" transform="translate(21,227)"/>
<path d="M0 0 C0.66 0 1.32 0 2 0 C2 0.66 2 1.32 2 2 C2.66 2 3.32 2 4 2 C3.979375 2.78375 3.95875 3.5675 3.9375 4.375 C3.81315937 6.98114961 3.81315937 6.98114961 5 9 C4.01 9.33 3.02 9.66 2 10 C0.39644899 6.49223216 -0.22036864 3.85645121 0 0 Z " fill="#8E3CCF" transform="translate(186,196)"/>
<path d="M0 0 C0.33 0 0.66 0 1 0 C3.11161731 9.41002278 3.11161731 9.41002278 4 14 C3.34 14 2.68 14 2 14 C1.67 13.01 1.34 12.02 1 11 C0.34 10.67 -0.32 10.34 -1 10 C-1.625 7.4375 -1.625 7.4375 -2 5 C-1.34 5 -0.68 5 0 5 C0 3.35 0 1.7 0 0 Z " fill="#AD55BF" transform="translate(112,175)"/>
<path d="M0 0 C2.475 0.495 2.475 0.495 5 1 C4.67 3.64 4.34 6.28 4 9 C3.71125 8.360625 3.4225 7.72125 3.125 7.0625 C2.17176549 4.84793921 2.17176549 4.84793921 0 4 C0 2.68 0 1.36 0 0 Z " fill="#B644B1" transform="translate(203,173)"/>
<path d="M0 0 C0.99 0.33 1.98 0.66 3 1 C2.01 2.98 1.02 4.96 0 7 C-2.31 6.67 -4.62 6.34 -7 6 C-3.25 4 -3.25 4 -1 4 C-0.67 2.68 -0.34 1.36 0 0 Z " fill="#DD6EAA" transform="translate(139,137)"/>
<path d="M0 0 C0.99 0 1.98 0 3 0 C2.67 6.27 2.34 12.54 2 19 C1.67 19 1.34 19 1 19 C0.67 12.73 0.34 6.46 0 0 Z " fill="#E7376F" transform="translate(223,120)"/>
<path d="M0 0 C2.475 0.99 2.475 0.99 5 2 C5 2.99 5 3.98 5 5 C4.34 5 3.68 5 3 5 C2.67 5.99 2.34 6.98 2 8 C0.9375 6.125 0.9375 6.125 0 4 C0.33 3.34 0.66 2.68 1 2 C0.34 1.67 -0.32 1.34 -1 1 C-0.67 0.67 -0.34 0.34 0 0 Z " fill="#F1326B" transform="translate(219,113)"/>
<path d="M0 0 C1.32 0.66 2.64 1.32 4 2 C2.625 3.5 2.625 3.5 1 5 C0.34 5 -0.32 5 -1 5 C-1.33 5.99 -1.66 6.98 -2 8 C-2.6875 5.6875 -2.6875 5.6875 -3 3 C-1.5625 1.1875 -1.5625 1.1875 0 0 Z " fill="#7242D9" transform="translate(203,226)"/>
<path d="M0 0 C0.33 0.66 0.66 1.32 1 2 C3.52733235 2.65555119 3.52733235 2.65555119 6 3 C4.6875 5 4.6875 5 3 7 C2.01 7 1.02 7 0 7 C-1.125 2.25 -1.125 2.25 0 0 Z " fill="#9F78D7" transform="translate(165,206)"/>
<path d="M0 0 C0.94875 0.350625 1.8975 0.70125 2.875 1.0625 C5.87060172 2.35026777 5.87060172 2.35026777 8 1 C11 6.75 11 6.75 11 9 C10.34 9 9.68 9 9 9 C8.814375 8.21625 8.62875 7.4325 8.4375 6.625 C7.16038373 3.60623658 7.16038373 3.60623658 3.375 2.6875 C2.26125 2.460625 1.1475 2.23375 0 2 C0 1.34 0 0.68 0 0 Z " fill="#CF5384" transform="translate(141,43)"/>
<path d="M0 0 C0 0.99 0 1.98 0 3 C-2.76250036 4.38125018 -4.94731099 4.19079306 -8 4 C-8.66 3.34 -9.32 2.68 -10 2 C-3.375 0 -3.375 0 0 0 Z " fill="#8A65D6" transform="translate(184,215)"/>
<path d="M0 0 C4.02550319 1.3418344 4.88285636 3.4227573 7 7 C7 7.66 7 8.32 7 9 C6.01 8.67 5.02 8.34 4 8 C4 7.34 4 6.68 4 6 C3.01 6 2.02 6 1 6 C0.67 4.02 0.34 2.04 0 0 Z " fill="#9354B8" transform="translate(116,192)"/>
<path d="M0 0 C0.96661363 3.12180401 0.98988909 5.52083795 0.5625 8.75 C0.40974609 9.94882813 0.40974609 9.94882813 0.25390625 11.171875 C0.12822266 12.07679688 0.12822266 12.07679688 0 13 C-0.66 13 -1.32 13 -2 13 C-2.16682272 8.07872966 -2.24828052 4.49656104 0 0 Z " fill="#DE3867" transform="translate(36,169)"/>
<path d="M0 0 C0.66 0 1.32 0 2 0 C3.4783226 2.95664519 3.06032783 5.74229737 3 9 C1.68 9 0.36 9 -1 9 C-1 6 -1 6 1 4 C0.6814823 1.89179203 0.6814823 1.89179203 0 0 Z " fill="#E54583" transform="translate(176,135)"/>
<path d="M0 0 C1.98 0 3.96 0 6 0 C6.33 1.65 6.66 3.3 7 5 C5.35 5 3.7 5 2 5 C1.34 3.35 0.68 1.7 0 0 Z " fill="#FA3743" transform="translate(30,242)"/>
<path d="M0 0 C0.66 0.99 1.32 1.98 2 3 C1.01 3.33 0.02 3.66 -1 4 C-0.67 5.32 -0.34 6.64 0 8 C-0.99 8.66 -1.98 9.32 -3 10 C-3.66 9.34 -4.32 8.68 -5 8 C-3.35 5.36 -1.7 2.72 0 0 Z " fill="#EB6266" transform="translate(22,223)"/>
<path d="M0 0 C0.99 0 1.98 0 3 0 C3 2.31 3 4.62 3 7 C2.01 7.33 1.02 7.66 0 8 C0 5.36 0 2.72 0 0 Z " fill="#CC2F96" transform="translate(155,153)"/>
<path d="M0 0 C0.66 1.65 1.32 3.3 2 5 C0.35 5 -1.3 5 -3 5 C-3.66 3.68 -4.32 2.36 -5 1 C-3 0 -3 0 0 0 Z " fill="#EC2D83" transform="translate(202,147)"/>
<path d="M0 0 C3.63 0.33 7.26 0.66 11 1 C7.55549263 3.29633824 5.06187717 3.54016485 1 4 C0.67 2.68 0.34 1.36 0 0 Z " fill="#E47AA0" transform="translate(185,140)"/>
<path d="M0 0 C-1.28813342 0.83878455 -2.58063256 1.67086783 -3.875 2.5 C-4.59429687 2.9640625 -5.31359375 3.428125 -6.0546875 3.90625 C-8 5 -8 5 -10 5 C-10 3.68 -10 2.36 -10 1 C-3.375 -1.125 -3.375 -1.125 0 0 Z " fill="#3B2361" transform="translate(99,48)"/>
<path d="M0 0 C2.64 0.33 5.28 0.66 8 1 C7.67 1.66 7.34 2.32 7 3 C4.6859378 3.73075648 2.35171131 4.40138258 0 5 C0 3.35 0 1.7 0 0 Z " fill="#535C7B" transform="translate(146,29)"/>
<path d="M0 0 C0.66 0.33 1.32 0.66 2 1 C2 3.97 2 6.94 2 10 C1.34 10 0.68 10 0 10 C0 9.34 0 8.68 0 8 C-0.66 8 -1.32 8 -2 8 C-1.125 1.125 -1.125 1.125 0 0 Z " fill="#7A2FBD" transform="translate(140,198)"/>
<path d="M0 0 C0.66 0 1.32 0 2 0 C4 3 4 3 4 6 C2.02 6 0.04 6 -2 6 C-1.34 4.02 -0.68 2.04 0 0 Z " fill="#E35886" transform="translate(195,135)"/>
<path d="M0 0 C2.97 0.495 2.97 0.495 6 1 C6.33 1.99 6.66 2.98 7 4 C3.37 3.67 -0.26 3.34 -4 3 C-2.68 2.67 -1.36 2.34 0 2 C0 1.34 0 0.68 0 0 Z " fill="#EA638B" transform="translate(170,114)"/>
<path d="M0 0 C2.31 0.66 4.62 1.32 7 2 C6.01 3.32 5.02 4.64 4 6 C2.02 5.34 0.04 4.68 -2 4 C-1.01 3.67 -0.02 3.34 1 3 C0.67 2.01 0.34 1.02 0 0 Z " fill="#475479" transform="translate(134,9)"/>
<path d="M0 0 C0.99 0.33 1.98 0.66 3 1 C2.67 2.98 2.34 4.96 2 7 C0.02 6.34 -1.96 5.68 -4 5 C-3.34 4.67 -2.68 4.34 -2 4 C-0.86649466 1.98330173 -0.86649466 1.98330173 0 0 Z " fill="#6831E2" transform="translate(175,228)"/>
<path d="M0 0 C0.99 0.33 1.98 0.66 3 1 C2.34 4.3 1.68 7.6 1 11 C0.67 11 0.34 11 0 11 C0 7.37 0 3.74 0 0 Z " fill="#B128BD" transform="translate(107,174)"/>
<path d="M0 0 C2 2 2 2 2.3125 4.875 C2 8 2 8 -1 12 C-0.67 8.04 -0.34 4.08 0 0 Z " fill="#CF70B3" transform="translate(141,154)"/>
<path d="M0 0 C1.32 0 2.64 0 4 0 C4 0.66 4 1.32 4 2 C3.01 2.495 3.01 2.495 2 3 C1.34786708 5.02463255 1.34786708 5.02463255 1 7 C0.01 6.67 -0.98 6.34 -2 6 C-1.34 4.02 -0.68 2.04 0 0 Z " fill="#E52A77" transform="translate(141,127)"/>
<path d="M0 0 C1.9375 0.3125 1.9375 0.3125 4 1 C4.33 1.99 4.66 2.98 5 4 C3.35 4 1.7 4 0 4 C0 4.66 0 5.32 0 6 C-0.66 6 -1.32 6 -2 6 C-1.49396008 3.83125748 -1.00016187 2.00032373 0 0 Z " fill="#E82A73" transform="translate(138,116)"/>
<path d="M0 0 C2.475 0.495 2.475 0.495 5 1 C5.33 1.99 5.66 2.98 6 4 C5.01 4.33 4.02 4.66 3 5 C2.01 4.34 1.02 3.68 0 3 C0 2.01 0 1.02 0 0 Z " fill="#283461" transform="translate(122,5)"/>
<path d="M0 0 C1.32 0.66 2.64 1.32 4 2 C4 2.99 4 3.98 4 5 C2.02 5 0.04 5 -2 5 C-1.34 3.35 -0.68 1.7 0 0 Z " fill="#F6433B" transform="translate(8,246)"/>
<path d="M0 0 C2.64 0.33 5.28 0.66 8 1 C8 1.66 8 2.32 8 3 C5.36 3 2.72 3 0 3 C0 2.01 0 1.02 0 0 Z " fill="#6631D7" transform="translate(151,219)"/>
<path d="M0 0 C0.66 0 1.32 0 2 0 C2 0.99 2 1.98 2 3 C-0.375 4.5625 -0.375 4.5625 -3 6 C-3.66 6.66 -4.32 7.32 -5 8 C-5.33 6.68 -5.66 5.36 -6 4 C-5.38125 3.71125 -4.7625 3.4225 -4.125 3.125 C-1.86674235 2.06279958 -1.86674235 2.06279958 0 0 Z " fill="#C02DAA" transform="translate(108,162)"/>
<path d="M0 0 C2.0625 0.4375 2.0625 0.4375 4 1 C3.34 2.65 2.68 4.3 2 6 C1.01 6 0.02 6 -1 6 C-1.042721 4.33388095 -1.04063832 2.66617115 -1 1 C-0.67 0.67 -0.34 0.34 0 0 Z " fill="#D65D96" transform="translate(189,148)"/>
<path d="M0 0 C-1.9626228 2.04795423 -3.4277307 2.94976638 -6.26953125 3.19921875 C-8.51954383 3.18858877 -10.75385562 3.12958525 -13 3 C-13 2.67 -13 2.34 -13 2 C-8.46298506 0.54815522 -4.81938524 -0.23509196 0 0 Z " fill="#E13836" transform="translate(33,248)"/>
<path d="M0 0 C1.32 0.66 2.64 1.32 4 2 C3.67 3.32 3.34 4.64 3 6 C2.01 5.67 1.02 5.34 0 5 C-0.33 4.01 -0.66 3.02 -1 2 C-0.67 1.34 -0.34 0.68 0 0 Z " fill="#7535D9" transform="translate(219,210)"/>
<path d="M0 0 C2.31 0 4.62 0 7 0 C7 0.99 7 1.98 7 3 C4.69 2.67 2.38 2.34 0 2 C0 1.34 0 0.68 0 0 Z " fill="#BB2FA8" transform="translate(196,173)"/>
<path d="M0 0 C0.99 0 1.98 0 3 0 C2.67 3.96 2.34 7.92 2 12 C1.67 12 1.34 12 1 12 C0.67 8.04 0.34 4.08 0 0 Z " fill="#B72F86" transform="translate(214,159)"/>
<path d="M0 0 C2 3 2 3 2 5 C2.99 5.33 3.98 5.66 5 6 C4.67 6.66 4.34 7.32 4 8 C3.01 8 2.02 8 1 8 C1 7.01 1 6.02 1 5 C0.34 5 -0.32 5 -1 5 C-0.67 3.35 -0.34 1.7 0 0 Z " fill="#D34DAD" transform="translate(121,146)"/>
<path d="M0 0 C0.99 1.32 1.98 2.64 3 4 C-0.75 7 -0.75 7 -3 7 C-3 5.68 -3 4.36 -3 3 C-2.01 3 -1.02 3 0 3 C0 2.01 0 1.02 0 0 Z " fill="#F4296C" transform="translate(186,129)"/>
<path d="M0 0 C0.66 0.33 1.32 0.66 2 1 C2.625 3.0625 2.625 3.0625 3 5 C1.35 5.33 -0.3 5.66 -2 6 C-2 4.68 -2 3.36 -2 2 C-1.34 2 -0.68 2 0 2 C0 1.34 0 0.68 0 0 Z " fill="#EA5486" transform="translate(155,124)"/>
<path d="M0 0 C1.98 0 3.96 0 6 0 C6.33 0.66 6.66 1.32 7 2 C6.34 2 5.68 2 5 2 C4.67 2.99 4.34 3.98 4 5 C2.64567325 3.68799596 1.31266518 2.35368596 0 1 C0 0.67 0 0.34 0 0 Z " fill="#EC3B89" transform="translate(99,101)"/>
<path d="M0 0 C0.33 0 0.66 0 1 0 C1.33 2.31 1.66 4.62 2 7 C0.33333333 7 -1.33333333 7 -3 7 C-1.125 1.125 -1.125 1.125 0 0 Z " fill="#EA61A1" transform="translate(85,78)"/>
<path d="M0 0 C0.99 0.66 1.98 1.32 3 2 C2.34 3.32 1.68 4.64 1 6 C-0.32 5.34 -1.64 4.68 -3 4 C-2.01 2.68 -1.02 1.36 0 0 Z " fill="#EE5C5A" transform="translate(16,233)"/>
<path d="M0 0 C0.99 0.33 1.98 0.66 3 1 C2.34 3.31 1.68 5.62 1 8 C0.34 7.67 -0.32 7.34 -1 7 C-0.67 4.69 -0.34 2.38 0 0 Z " fill="#9331D2" transform="translate(168,192)"/>
<path d="M0 0 C2.97 0.495 2.97 0.495 6 1 C6 1.66 6 2.32 6 3 C3.69 3 1.38 3 -1 3 C-0.67 2.01 -0.34 1.02 0 0 Z " fill="#D03198" transform="translate(201,161)"/>
<path d="M0 0 C0.66 0 1.32 0 2 0 C1.34 2.31 0.68 4.62 0 7 C-0.66 7 -1.32 7 -2 7 C-1.125 1.125 -1.125 1.125 0 0 Z " fill="#D059A2" transform="translate(106,149)"/>
<path d="M0 0 C0.66 0 1.32 0 2 0 C2 2.64 2 5.28 2 8 C0.68 7.67 -0.64 7.34 -2 7 C-1.34 4.69 -0.68 2.38 0 0 Z " fill="#D86B9C" transform="translate(146,138)"/>
<path d="M0 0 C0.66 0.33 1.32 0.66 2 1 C2.33 1.99 2.66 2.98 3 4 C1.824375 4.2165625 1.824375 4.2165625 0.625 4.4375 C-1.96421018 4.87798925 -1.96421018 4.87798925 -4 6 C-4 5.01 -4 4.02 -4 3 C-2 1.3125 -2 1.3125 0 0 Z " fill="#F83091" transform="translate(62,110)"/>
<path d="M0 0 C3.00617269 3.00617269 2.59585316 5.82381598 3 10 C0.51280729 7.08025204 -0.58572305 4.83206182 -1 1 C-0.67 0.67 -0.34 0.34 0 0 Z " fill="#DD6093" transform="translate(114,108)"/>
<path d="M0 0 C0.99 0.33 1.98 0.66 3 1 C0.25 7.875 0.25 7.875 -2 9 C-2 7.68 -2 6.36 -2 5 C-1.34 5 -0.68 5 0 5 C0 3.35 0 1.7 0 0 Z " fill="#F82B8D" transform="translate(92,59)"/>
<path d="M0 0 C1.32 0.33 2.64 0.66 4 1 C3.67 1.99 3.34 2.98 3 4 C2.01 4.33 1.02 4.66 0 5 C-0.66 4.67 -1.32 4.34 -2 4 C-1.34 2.68 -0.68 1.36 0 0 Z " fill="#A653DA" transform="translate(84,219)"/>
<path d="M0 0 C1.98 0 3.96 0 6 0 C6 0.66 6 1.32 6 2 C3.69 2.66 1.38 3.32 -1 4 C-0.67 2.68 -0.34 1.36 0 0 Z " fill="#B742BB" transform="translate(71,207)"/>
<path d="M0 0 C1.98 0 3.96 0 6 0 C6 0.66 6 1.32 6 2 C5.071875 2.1546875 5.071875 2.1546875 4.125 2.3125 C1.63473516 2.87525373 1.63473516 2.87525373 0 6 C0 4.02 0 2.04 0 0 Z " fill="#BB5190" transform="translate(142,150)"/>
<path d="M0 0 C1.36511719 0.29197266 1.36511719 0.29197266 2.7578125 0.58984375 C3.45648438 0.74582031 4.15515625 0.90179688 4.875 1.0625 C4.875 1.3925 4.875 1.7225 4.875 2.0625 C1.245 2.0625 -2.385 2.0625 -6.125 2.0625 C-6.455 1.4025 -6.785 0.7425 -7.125 0.0625 C-4.4030754 -1.2984623 -2.9418043 -0.64116248 0 0 Z " fill="#C42E73" transform="translate(154.125,143.9375)"/>
<path d="M0 0 C-1.39332574 3.36720387 -2.9789286 4.9859524 -6 7 C-6 6.01 -6 5.02 -6 4 C-5.34 4 -4.68 4 -4 4 C-4 3.01 -4 2.02 -4 1 C-2 0 -2 0 0 0 Z " fill="#FA3383" transform="translate(49,139)"/>
<path d="M0 0 C0 0.66 0 1.32 0 2 C-0.66 2 -1.32 2 -2 2 C-2.66 3.65 -3.32 5.3 -4 7 C-4.66 5.68 -5.32 4.36 -6 3 C-2.25 0 -2.25 0 0 0 Z " fill="#F2398A" transform="translate(55,122)"/>
</svg>
